<svg width="288" height="299" viewBox="0 0 288 299" fill="none" xmlns="http://www.w3.org/2000/svg">
<path d="M286.385 13.0876V185.409C286.386 188.862 285.017 192.174 282.577 194.618C280.137 197.061 276.827 198.436 273.374 198.44H13.7854C10.3306 198.44 7.01739 197.068 4.57453 194.625C2.13166 192.182 0.759277 188.869 0.759277 185.414H0.759277V13.0876C0.767414 9.63727 2.14306 6.33087 4.58475 3.89302C7.02644 1.45518 10.335 0.0847342 13.7854 0.0820312H273.374C276.822 0.0887978 280.126 1.46103 282.565 3.89844C285.003 6.33585 286.377 9.63993 286.385 13.0876Z" fill="#2B95F6"/>
<path d="M286.385 13.0876V185.409C286.386 188.862 285.017 192.174 282.577 194.618C280.137 197.061 276.827 198.436 273.374 198.44H13.7854C10.3306 198.44 7.01739 197.068 4.57453 194.625C2.13166 192.182 0.759277 188.869 0.759277 185.414H0.759277V13.0876C0.767414 9.63727 2.14306 6.33087 4.58475 3.89302C7.02644 1.45518 10.335 0.0847342 13.7854 0.0820312H273.374C276.822 0.0887978 280.126 1.46103 282.565 3.89844C285.003 6.33585 286.377 9.63993 286.385 13.0876Z" fill="url(#paint0_linear_320_50)"/>
<path opacity="0.19" d="M81.5035 34.9275L77.2452 36.9311V122.82L88.3855 163.036L89.9228 197.882L118.107 198.394V138.321L129.754 121.098L209.899 120.786V116.323L81.5035 34.9275ZM119.239 122.948C118.112 125.51 115.714 127.909 114.038 130.153C111.988 132.913 109.906 135.665 107.791 138.408C107.606 138.682 107.369 138.917 107.094 139.1C106.105 139.659 104.958 138.731 104.24 137.855C100.122 132.878 96.9423 127.193 94.8575 121.078C94.716 120.778 94.6922 120.436 94.7909 120.12C95.001 119.658 95.6313 119.607 96.1386 119.607C102.493 119.781 108.847 119.995 115.201 120.248C117.374 120.33 120.577 119.863 119.234 122.933L119.239 122.948Z" fill="url(#paint1_linear_320_50)"/>
<path d="M213.071 32.396H81.4984V118.044H213.071V32.396Z" fill="white"/>
<path d="M208.382 36.9158H86.4229V113.525H208.382V36.9158Z" fill="#2B95F6"/>
<path d="M208.382 78.5152V113.525H86.4229V90.3012C93.3715 82.5429 103.641 77.4032 112.788 71.0542C114.452 69.7972 116.264 68.7492 118.184 67.9335C126.034 64.9716 134.361 70.1318 141.499 74.5439C150.143 79.8869 159.251 84.437 168.715 88.1387C165.534 83.5371 160.922 80.1145 155.596 78.4025L168.038 68.0923C169.576 66.8163 171.164 65.5301 173.045 64.8384C176.821 63.4906 180.972 64.8947 184.697 66.3757C189.911 68.4561 195.045 70.716 200.101 73.1552C203.073 74.6105 206.086 76.1631 208.382 78.5152Z" fill="url(#paint2_linear_320_50)"/>
<path opacity="0.19" d="M91.1322 96.599C91.993 97.588 92.8181 98.8179 94.1094 99.028C94.5165 99.0342 94.9185 99.1194 95.2931 99.2791C95.8056 99.5968 95.867 100.304 95.8824 100.893C95.9542 103.554 96.0242 106.212 96.0925 108.867C96.1335 110.358 96.0925 112.003 95.1291 113.12C94.6884 113.632 94.1043 113.96 93.638 114.462C93.3883 114.688 93.2214 114.991 93.1638 115.322C93.1062 115.654 93.1613 115.995 93.3203 116.292C95.9153 116.299 98.486 116.793 100.899 117.747L86.9507 118.034C86.5984 118.074 86.2422 118.01 85.9258 117.85C85.4493 117.537 85.3775 116.881 85.3622 116.312C85.3058 114.032 85.3621 111.752 85.4851 109.477C85.632 107.966 85.656 106.446 85.5569 104.931C85.3673 103.03 84.7165 101.129 85.0854 99.2534C85.6696 96.225 88.6776 93.7755 91.1322 96.599Z" fill="url(#paint3_linear_320_50)"/>
<path d="M190.724 60.0265C195.263 60.0265 198.943 56.3466 198.943 51.8071C198.943 47.2676 195.263 43.5876 190.724 43.5876C186.184 43.5876 182.504 47.2676 182.504 51.8071C182.504 56.3466 186.184 60.0265 190.724 60.0265Z" fill="white"/>
<path d="M89.9228 298.185C90.3305 298.185 90.7215 298.023 91.0098 297.735C91.2981 297.447 91.4601 297.056 91.4601 296.648V140.607C91.4601 140.199 91.2981 139.808 91.0098 139.52C90.7215 139.232 90.3305 139.07 89.9228 139.07C89.5151 139.07 89.1241 139.232 88.8358 139.52C88.5475 139.808 88.3855 140.199 88.3855 140.607V296.633C88.3855 297.041 88.5475 297.432 88.8358 297.72C89.1241 298.008 89.5151 298.17 89.9228 298.17V298.185Z" fill="#2B95F6"/>
<path d="M111.916 298.185C112.324 298.185 112.715 298.023 113.004 297.735C113.292 297.447 113.454 297.056 113.454 296.648V140.607C113.454 140.199 113.292 139.808 113.004 139.52C112.715 139.232 112.324 139.07 111.916 139.07C111.509 139.07 111.118 139.232 110.829 139.52C110.541 139.808 110.379 140.199 110.379 140.607V296.633C110.379 297.041 110.541 297.432 110.829 297.72C111.118 298.008 111.509 298.17 111.916 298.17V298.185Z" fill="#2B95F6"/>
<path d="M111.916 152.372H89.9279V155.913H111.916V152.372Z" fill="#2B95F6"/>
<path d="M111.916 175.109H89.9279V178.65H111.916V175.109Z" fill="#2B95F6"/>
<path d="M111.916 197.841H89.9279V201.381H111.916V197.841Z" fill="#2B95F6"/>
<path d="M111.916 220.577H89.9279V224.118H111.916V220.577Z" fill="#2B95F6"/>
<path d="M111.916 243.309H89.9279V246.85H111.916V243.309Z" fill="#2B95F6"/>
<path d="M111.916 266.045H89.9279V269.586H111.916V266.045Z" fill="#2B95F6"/>
<path d="M89.9228 298.185C90.3305 298.185 90.7215 298.023 91.0098 297.735C91.2981 297.447 91.4601 297.056 91.4601 296.648V140.607C91.4601 140.199 91.2981 139.808 91.0098 139.52C90.7215 139.232 90.3305 139.07 89.9228 139.07C89.5151 139.07 89.1241 139.232 88.8358 139.52C88.5475 139.808 88.3855 140.199 88.3855 140.607V296.633C88.3855 297.041 88.5475 297.432 88.8358 297.72C89.1241 298.008 89.5151 298.17 89.9228 298.17V298.185Z" fill="url(#paint4_linear_320_50)"/>
<path d="M111.916 298.185C112.324 298.185 112.715 298.023 113.004 297.735C113.292 297.447 113.454 297.056 113.454 296.648V140.607C113.454 140.199 113.292 139.808 113.004 139.52C112.715 139.232 112.324 139.07 111.916 139.07C111.509 139.07 111.118 139.232 110.829 139.52C110.541 139.808 110.379 140.199 110.379 140.607V296.633C110.379 297.041 110.541 297.432 110.829 297.72C111.118 298.008 111.509 298.17 111.916 298.17V298.185Z" fill="url(#paint5_linear_320_50)"/>
<path d="M111.916 152.372H89.9279V155.913H111.916V152.372Z" fill="url(#paint6_linear_320_50)"/>
<path d="M111.916 175.109H89.9279V178.65H111.916V175.109Z" fill="url(#paint7_linear_320_50)"/>
<path d="M111.916 197.841H89.9279V201.381H111.916V197.841Z" fill="url(#paint8_linear_320_50)"/>
<path d="M111.916 220.577H89.9279V224.118H111.916V220.577Z" fill="url(#paint9_linear_320_50)"/>
<path d="M111.916 243.309H89.9279V246.85H111.916V243.309Z" fill="url(#paint10_linear_320_50)"/>
<path d="M111.916 266.045H89.9279V269.586H111.916V266.045Z" fill="url(#paint11_linear_320_50)"/>
<path d="M287.241 13.0363V15.5985H1.60992V13.0363C1.60992 9.57976 2.98269 6.2647 5.42636 3.82006C7.87004 1.37542 11.1846 0.00135871 14.6411 0H274.21C277.665 0.00135809 280.979 1.37472 283.422 3.81825C285.866 6.26178 287.239 9.57553 287.241 13.0312V13.0363Z" fill="#2B95F6"/>
<path d="M287.241 13.0363V15.5985H1.60992V13.0363C1.60992 9.57976 2.98269 6.2647 5.42636 3.82006C7.87004 1.37542 11.1846 0.00135871 14.6411 0H274.21C277.665 0.00135809 280.979 1.37472 283.422 3.81825C285.866 6.26178 287.239 9.57553 287.241 13.0312V13.0363Z" fill="#2B95F6"/>
<path d="M287.241 13.0363V15.5985H1.60992V13.0363C1.60992 9.57976 2.98269 6.2647 5.42636 3.82006C7.87004 1.37542 11.1846 0.00135871 14.6411 0H274.21C277.665 0.00135809 280.979 1.37472 283.422 3.81825C285.866 6.26178 287.239 9.57553 287.241 13.0312V13.0363Z" fill="url(#paint12_linear_320_50)"/>
<path d="M16.4244 7.8095C16.4244 8.2149 16.3042 8.6112 16.079 8.94827C15.8537 9.28535 15.5336 9.54807 15.1591 9.70321C14.7845 9.85835 14.3724 9.89894 13.9748 9.81985C13.5772 9.74076 13.2119 9.54555 12.9253 9.25888C12.6386 8.97222 12.4434 8.607 12.3643 8.20939C12.2852 7.81178 12.3258 7.39964 12.4809 7.0251C12.6361 6.65056 12.8988 6.33044 13.2359 6.10521C13.573 5.87998 13.9693 5.75977 14.3747 5.75977C14.9183 5.75977 15.4396 5.97572 15.824 6.36012C16.2084 6.74452 16.4244 7.26588 16.4244 7.8095Z" fill="url(#paint13_linear_320_50)"/>
<path d="M25.9813 7.8095C25.9813 8.2149 25.8611 8.6112 25.6358 8.94827C25.4106 9.28535 25.0905 9.54807 24.7159 9.70321C24.3414 9.85835 23.9293 9.89894 23.5317 9.81985C23.134 9.74076 22.7688 9.54555 22.4822 9.25888C22.1955 8.97222 22.0003 8.607 21.9212 8.20939C21.8421 7.81178 21.8827 7.39964 22.0378 7.0251C22.193 6.65056 22.4557 6.33044 22.7928 6.10521C23.1298 5.87998 23.5261 5.75977 23.9315 5.75977C24.4752 5.75977 24.9965 5.97572 25.3809 6.36012C25.7653 6.74452 25.9813 7.26588 25.9813 7.8095Z" fill="url(#paint14_linear_320_50)"/>
<path d="M33.4782 9.85923C34.6131 9.85923 35.5331 8.93924 35.5331 7.80437C35.5331 6.6695 34.6131 5.74951 33.4782 5.74951C32.3433 5.74951 31.4233 6.6695 31.4233 7.80437C31.4233 8.93924 32.3433 9.85923 33.4782 9.85923Z" fill="url(#paint15_linear_320_50)"/>
<path d="M63.3121 15.6138V198.394H14.6309C11.1757 198.394 7.86191 197.022 5.41823 194.579C2.97456 192.136 1.60103 188.823 1.59967 185.368V15.6138H63.3121Z" fill="#2B95F6"/>
<path d="M55.0773 44.961H10.3725C10.0101 44.9597 9.66287 44.8151 9.40657 44.5588C9.15028 44.3025 9.00569 43.9553 9.00434 43.5928C9.00367 43.4138 9.03826 43.2364 9.10614 43.0708C9.17402 42.9052 9.27385 42.7545 9.39995 42.6275C9.52605 42.5004 9.67594 42.3994 9.84106 42.3303C10.0062 42.2612 10.1833 42.2253 10.3623 42.2246H55.0773C55.4397 42.226 55.787 42.3705 56.0433 42.6268C56.2996 42.8831 56.4441 43.2304 56.4455 43.5928C56.4441 43.9553 56.2996 44.3025 56.0433 44.5588C55.787 44.8151 55.4397 44.9597 55.0773 44.961Z" fill="url(#paint16_linear_320_50)"/>
<path d="M55.0773 70.2342H10.3725C10.0101 70.2328 9.66286 70.0883 9.40656 69.832C9.15027 69.5757 9.00568 69.2284 9.00433 68.866C9.00432 68.5035 9.14761 68.1558 9.40294 67.8985C9.65828 67.6413 10.005 67.4954 10.3674 67.4927H55.0773C55.4406 67.494 55.7886 67.6393 56.0451 67.8967C56.3015 68.1541 56.4455 68.5027 56.4455 68.866C56.4428 69.228 56.2978 69.5745 56.0418 69.8305C55.7858 70.0865 55.4393 70.2315 55.0773 70.2342Z" fill="url(#paint17_linear_320_50)"/>
<path d="M55.0773 95.5125H10.3725C10.0101 95.5112 9.66286 95.3666 9.40656 95.1103C9.15027 94.854 9.00568 94.5068 9.00433 94.1443C9.00162 93.9627 9.03497 93.7823 9.10245 93.6136C9.16993 93.445 9.2702 93.2914 9.39745 93.1618C9.5247 93.0321 9.67641 92.929 9.84379 92.8584C10.0112 92.7878 10.1909 92.7511 10.3725 92.7505H55.0773C55.4393 92.7532 55.7858 92.8982 56.0418 93.1542C56.2978 93.4102 56.4428 93.7566 56.4455 94.1187C56.4482 94.3003 56.4148 94.4807 56.3474 94.6493C56.2799 94.818 56.1796 94.9716 56.0524 95.1012C55.9251 95.2309 55.7734 95.334 55.606 95.4046C55.4387 95.4752 55.2589 95.5119 55.0773 95.5125Z" fill="url(#paint18_linear_320_50)"/>
<path d="M55.0773 120.786H10.3725C10.1935 120.786 10.0162 120.752 9.85052 120.684C9.68489 120.616 9.53425 120.516 9.4072 120.39C9.28015 120.264 9.17918 120.114 9.11006 119.949C9.04094 119.784 9.00501 119.607 9.00434 119.428C9.00367 119.249 9.03826 119.071 9.10614 118.906C9.17402 118.74 9.27385 118.59 9.39995 118.462C9.52605 118.335 9.67594 118.234 9.84106 118.165C10.0062 118.096 10.1833 118.06 10.3623 118.06H55.0773C55.4372 118.057 55.7837 118.195 56.0425 118.445C56.3012 118.696 56.4515 119.037 56.4609 119.397C56.4629 119.58 56.4286 119.761 56.3598 119.93C56.2911 120.099 56.1893 120.252 56.0605 120.382C55.9317 120.511 55.7784 120.613 55.6096 120.683C55.4408 120.752 55.2598 120.787 55.0773 120.786Z" fill="url(#paint19_linear_320_50)"/>
<path d="M70.8141 138.183C70.8141 138.183 68.5645 138.782 67.2681 137.501C65.9716 136.22 66.6429 132.105 66.6429 132.105L89.9228 103.87L90.384 111.808L70.8141 138.183Z" fill="url(#paint20_linear_320_50)"/>
<path d="M214.721 139.049H168.458V156.164H214.721V139.049Z" fill="#2B95F6"/>
<path d="M287.241 15.6138V185.358C287.242 187.068 286.906 188.762 286.253 190.343C285.6 191.924 284.641 193.361 283.433 194.571C282.224 195.782 280.789 196.743 279.209 197.398C277.629 198.054 275.935 198.393 274.225 198.394H230.986V15.6138H287.241Z" fill="#2B95F6"/>
<path d="M287.241 63.8237H230.986V139.787H287.241V63.8237Z" fill="url(#paint21_linear_320_50)"/>
<path d="M102.513 139.054C102.513 139.054 105.962 143.83 108.176 143.943C110.389 144.055 123.743 120.299 123.743 120.299L126.669 118.049C126.669 118.049 120.32 117.025 119.465 118.188C118.609 119.351 108.75 135.611 108.75 135.611L107.346 134.898L102.513 139.054Z" fill="url(#paint22_linear_320_50)"/>
<path d="M76.9172 162.657C76.9172 162.657 75.8924 169.19 76.9172 171.881C77.9421 174.571 86.9609 190.625 86.9609 190.625L84.6345 215.222H91.9725L95.5135 190.625L91.4601 171.881L96.2309 161.376L76.9172 162.657Z" fill="#25233A"/>
<path d="M83.7377 170.43L99.5053 197.846L101.437 218.62L108.524 216.898L107.346 191.476L97.3275 160.868L81.9544 162.324C81.9544 162.324 82.3336 168.186 83.7377 170.43Z" fill="#3F3D56"/>
<path d="M102.442 218.379C102.442 218.379 103.272 223.739 103.651 224.128C104.03 224.518 107.002 223.754 107.002 223.754L111.916 220.582C111.916 220.582 111.916 219.045 108.217 219.947C108.217 219.947 106.567 220.044 106.444 217.385L102.442 218.379Z" fill="url(#paint23_linear_320_50)"/>
<path d="M91.9725 215.187L91.4601 217.641L95.6569 220.577C95.6569 220.577 95.4878 221.351 94.0018 221.694C92.5157 222.038 85.8951 221.484 85.8028 220.818C85.7106 220.152 86.8687 218.041 86.9609 217.81C87.0532 217.58 87.5144 215.187 87.5144 215.187H91.9725Z" fill="url(#paint24_linear_320_50)"/>
<path d="M82.4362 117.224C82.4362 117.224 75.6874 118.864 74.7753 121.057C73.8631 123.251 66.4585 130.102 66.6429 132.802C66.8274 135.503 71.9056 138.982 71.9056 138.982L75.7899 135.195L76.2255 160.786C76.2362 161.405 76.4394 162.005 76.8067 162.502C77.1741 163 77.6873 163.371 78.2752 163.564C81.1961 164.512 84.3424 164.322 88.3701 162.99C94.1043 161.094 97.4505 161.283 97.4505 161.283L96.4615 134.124L101.125 140.202L107.346 134.867C107.346 134.867 98.2089 120.007 96.6511 119.084C95.0933 118.162 88.1191 117.122 88.1191 117.122C88.1191 117.122 85.0393 118.992 82.4362 117.224Z" fill="#2B95F6"/>
<path d="M82.4362 117.224C82.4362 117.224 75.6874 118.864 74.7753 121.057C73.8631 123.251 66.4585 130.102 66.6429 132.802C66.8274 135.503 71.9056 138.982 71.9056 138.982L75.7899 135.195L76.2255 160.786C76.2362 161.405 76.4394 162.005 76.8067 162.502C77.1741 163 77.6873 163.371 78.2752 163.564C81.1961 164.512 84.3424 164.322 88.3701 162.99C94.1043 161.094 97.4505 161.283 97.4505 161.283L96.4615 134.124L101.125 140.202L107.346 134.867C107.346 134.867 98.2089 120.007 96.6511 119.084C95.0933 118.162 88.1191 117.122 88.1191 117.122C88.1191 117.122 85.0393 118.992 82.4362 117.224Z" fill="url(#paint25_linear_320_50)"/>
<path d="M91.2039 102.154C91.5522 104.075 91.7679 106.019 91.8495 107.97C91.9268 108.701 91.8852 109.44 91.7266 110.158C91.6432 110.516 91.4794 110.851 91.2478 111.137C91.0161 111.423 90.7225 111.652 90.3891 111.808C89.9572 111.906 89.5365 112.049 89.1337 112.233C88.836 112.448 88.6251 112.763 88.5392 113.12C88.4214 113.798 88.4214 114.491 88.5392 115.17C88.6454 115.852 88.4938 116.55 88.1139 117.127C87.7722 117.489 87.3323 117.744 86.8482 117.86C85.7012 118.219 84.4796 118.269 83.3073 118.003C83.1219 117.973 82.9463 117.899 82.7948 117.788C82.6357 117.627 82.521 117.428 82.4618 117.209C82.0362 115.9 81.6939 114.565 81.4369 113.212C80.9585 111.322 80.665 109.389 80.5606 107.442C80.4593 105.483 80.9639 103.54 82.0057 101.877C83.1023 100.263 84.9881 99.115 86.9353 99.2432C88.0171 99.3759 89.0677 99.6949 90.0407 100.186C90.8452 100.575 91.0297 101.272 91.2039 102.154Z" fill="url(#paint26_linear_320_50)"/>
<path d="M91.2039 99.4942C91.2551 98.5257 90.4865 97.7161 89.7127 97.137C89.5659 97.0413 89.436 96.9218 89.3284 96.7834C89.2207 96.5681 89.1382 96.3412 89.0824 96.107C88.7698 95.2256 87.7245 94.8311 86.7867 94.8311C85.849 94.8311 84.9317 95.1129 83.9991 95.0873C83.2612 95.0873 82.4618 94.8618 81.8059 95.1744C81.4171 95.3842 81.0849 95.6848 80.8374 96.0507C80.3712 96.5885 80.0439 97.2325 79.8842 97.9262C79.8535 98.2387 79.8125 98.5513 79.751 98.8639C79.6433 99.2102 79.4693 99.5322 79.2386 99.8119C78.2649 101.149 76.8455 102.272 76.497 103.886C76.2767 104.911 76.0563 106.089 76.5483 107.012C81.319 115.892 82.5284 116.405 83.0408 116.317C83.5533 116.23 86.2282 116.123 86.51 112.73C86.5757 112.503 86.5983 112.264 86.5766 112.028C86.5058 111.835 86.3919 111.659 86.2435 111.516C85.9048 111.182 85.6242 110.794 85.4134 110.368C85.3078 110.155 85.2528 109.921 85.2528 109.684C85.2528 109.447 85.3078 109.212 85.4134 109C85.5026 108.867 85.6172 108.753 85.7506 108.664C85.884 108.576 86.0335 108.515 86.1907 108.484C86.3479 108.454 86.5095 108.455 86.6663 108.487C86.8231 108.519 86.972 108.582 87.1044 108.672C87.1903 108.727 87.268 108.795 87.335 108.872C87.6527 107.965 86.7098 106.94 87.0993 106.058C87.3299 105.546 87.9807 105.264 88.2062 104.726C88.5034 104.009 87.9704 103.015 88.5392 102.487C88.7302 102.355 88.9326 102.24 89.1439 102.143C89.4667 101.944 89.5334 101.677 89.6922 101.365C89.8511 101.052 89.8921 101.083 90.2354 100.903C90.5031 100.77 90.7325 100.571 90.9019 100.324C91.0714 100.078 91.1753 99.792 91.2039 99.4942Z" fill="#3F3D56"/>
<path d="M104.051 221.182C105.111 220.926 105.752 219.865 106.644 219.23C106.851 219.072 107.091 218.962 107.346 218.907C107.637 218.884 107.929 218.898 108.217 218.948C108.96 219.014 109.703 218.845 110.451 218.845C110.822 218.845 111.191 218.886 111.553 218.968C111.936 219.038 112.292 219.216 112.578 219.481C112.719 219.614 112.817 219.788 112.858 219.978C112.899 220.168 112.882 220.366 112.808 220.547C112.684 220.758 112.507 220.934 112.296 221.059C110.588 222.238 108.862 223.413 107.12 224.584C106.607 224.97 106.036 225.272 105.429 225.481C104.854 225.644 104.244 225.631 103.677 225.445C103.448 225.384 103.241 225.257 103.082 225.082C102.964 224.918 102.882 224.731 102.841 224.533C102.641 223.816 102.257 222.781 102.401 222.027C102.544 221.274 103.446 221.331 104.051 221.182Z" fill="#3F3D56"/>
<path d="M86.0129 218.707L85.4031 220.757C85.3372 220.901 85.3031 221.057 85.3031 221.215C85.3031 221.374 85.3372 221.53 85.4031 221.674C85.5739 221.866 85.8088 221.99 86.0642 222.022C86.6648 222.19 87.2785 222.306 87.8987 222.371C88.8467 222.437 89.7896 222.258 90.7324 222.284C91.8034 222.314 92.8898 222.612 93.9198 222.335C94.5455 222.125 95.1324 221.813 95.6569 221.413L96.6459 220.731C96.7281 220.689 96.7919 220.617 96.8253 220.531C96.8612 220.403 96.7587 220.28 96.6562 220.193C95.908 219.547 94.8729 219.378 93.9505 219.014C93.1076 218.68 92.3446 218.172 91.7112 217.523C91.5901 217.371 91.4258 217.258 91.2398 217.2C90.9323 217.139 90.6658 217.405 90.3994 217.574C89.8579 217.863 89.239 217.972 88.6315 217.887C88.1754 217.82 88.16 217.585 87.8782 217.287C86.9968 216.38 86.2179 218.015 86.0129 218.707Z" fill="#3F3D56"/>
<defs>
<linearGradient id="paint0_linear_320_50" x1="138.522" y1="227.306" x2="146.629" y2="21.7426" gradientUnits="userSpaceOnUse">
<stop stop-color="white" stop-opacity="0"/>
<stop offset="1" stop-color="white"/>
</linearGradient>
<linearGradient id="paint1_linear_320_50" x1="77.2452" y1="116.671" x2="209.889" y2="116.671" gradientUnits="userSpaceOnUse">
<stop stop-color="#183866"/>
<stop offset="1" stop-color="#1A7FC1"/>
</linearGradient>
<linearGradient id="paint2_linear_320_50" x1="147.403" y1="64.1722" x2="147.403" y2="272.871" gradientUnits="userSpaceOnUse">
<stop stop-opacity="0"/>
<stop offset="0.97"/>
</linearGradient>
<linearGradient id="paint3_linear_320_50" x1="84.9727" y1="106.704" x2="100.899" y2="106.704" gradientUnits="userSpaceOnUse">
<stop stop-color="#183866"/>
<stop offset="1" stop-color="#1A7FC1"/>
</linearGradient>
<linearGradient id="paint4_linear_320_50" x1="88.3752" y1="218.63" x2="91.4806" y2="218.63" gradientUnits="userSpaceOnUse">
<stop stop-opacity="0"/>
<stop offset="0.97"/>
</linearGradient>
<linearGradient id="paint5_linear_320_50" x1="110.364" y1="218.63" x2="113.469" y2="218.63" gradientUnits="userSpaceOnUse">
<stop stop-opacity="0"/>
<stop offset="0.97"/>
</linearGradient>
<linearGradient id="paint6_linear_320_50" x1="89.9279" y1="154.145" x2="111.916" y2="154.145" gradientUnits="userSpaceOnUse">
<stop stop-opacity="0"/>
<stop offset="0.97"/>
</linearGradient>
<linearGradient id="paint7_linear_320_50" x1="89.9279" y1="176.882" x2="111.916" y2="176.882" gradientUnits="userSpaceOnUse">
<stop stop-opacity="0"/>
<stop offset="0.97"/>
</linearGradient>
<linearGradient id="paint8_linear_320_50" x1="89.9279" y1="199.608" x2="111.916" y2="199.608" gradientUnits="userSpaceOnUse">
<stop stop-opacity="0"/>
<stop offset="0.97"/>
</linearGradient>
<linearGradient id="paint9_linear_320_50" x1="89.9279" y1="222.35" x2="111.916" y2="222.35" gradientUnits="userSpaceOnUse">
<stop stop-opacity="0"/>
<stop offset="0.97"/>
</linearGradient>
<linearGradient id="paint10_linear_320_50" x1="89.9279" y1="245.077" x2="111.916" y2="245.077" gradientUnits="userSpaceOnUse">
<stop stop-opacity="0"/>
<stop offset="0.97"/>
</linearGradient>
<linearGradient id="paint11_linear_320_50" x1="89.9279" y1="267.813" x2="111.916" y2="267.813" gradientUnits="userSpaceOnUse">
<stop stop-opacity="0"/>
<stop offset="0.97"/>
</linearGradient>
<linearGradient id="paint12_linear_320_50" x1="141.048" y1="4.90912" x2="160.126" y2="50.6951" gradientUnits="userSpaceOnUse">
<stop stop-color="white" stop-opacity="0"/>
<stop offset="1" stop-color="white"/>
</linearGradient>
<linearGradient id="paint13_linear_320_50" x1="14.5796" y1="0.625176" x2="14.3542" y2="8.61915" gradientUnits="userSpaceOnUse">
<stop stop-color="#A8EEFD"/>
<stop offset="1" stop-color="#E7FAFF"/>
</linearGradient>
<linearGradient id="paint14_linear_320_50" x1="24.1263" y1="0.896766" x2="23.9008" y2="8.89074" gradientUnits="userSpaceOnUse">
<stop stop-color="#A8EEFD"/>
<stop offset="1" stop-color="#E7FAFF"/>
</linearGradient>
<linearGradient id="paint15_linear_320_50" x1="33.6678" y1="1.16835" x2="33.4423" y2="9.16232" gradientUnits="userSpaceOnUse">
<stop stop-color="#A8EEFD"/>
<stop offset="1" stop-color="#E7FAFF"/>
</linearGradient>
<linearGradient id="paint16_linear_320_50" x1="79.6844" y1="36.019" x2="51.3724" y2="40.5848" gradientUnits="userSpaceOnUse">
<stop stop-color="#68E1FD"/>
<stop offset="0.08" stop-color="#84E6FD"/>
<stop offset="0.21" stop-color="#A9EEFE"/>
<stop offset="0.35" stop-color="#C8F4FE"/>
<stop offset="0.49" stop-color="#E0F9FF"/>
<stop offset="0.64" stop-color="#F2FCFF"/>
<stop offset="0.8" stop-color="#FCFEFF"/>
<stop offset="1" stop-color="white"/>
</linearGradient>
<linearGradient id="paint17_linear_320_50" x1="83.6609" y1="60.6517" x2="55.3437" y2="65.2175" gradientUnits="userSpaceOnUse">
<stop stop-color="#68E1FD"/>
<stop offset="0.08" stop-color="#84E6FD"/>
<stop offset="0.21" stop-color="#A9EEFE"/>
<stop offset="0.35" stop-color="#C8F4FE"/>
<stop offset="0.49" stop-color="#E0F9FF"/>
<stop offset="0.64" stop-color="#F2FCFF"/>
<stop offset="0.8" stop-color="#FCFEFF"/>
<stop offset="1" stop-color="white"/>
</linearGradient>
<linearGradient id="paint18_linear_320_50" x1="87.6322" y1="85.2894" x2="59.3202" y2="89.8552" gradientUnits="userSpaceOnUse">
<stop stop-color="#68E1FD"/>
<stop offset="0.08" stop-color="#84E6FD"/>
<stop offset="0.21" stop-color="#A9EEFE"/>
<stop offset="0.35" stop-color="#C8F4FE"/>
<stop offset="0.49" stop-color="#E0F9FF"/>
<stop offset="0.64" stop-color="#F2FCFF"/>
<stop offset="0.8" stop-color="#FCFEFF"/>
<stop offset="1" stop-color="white"/>
</linearGradient>
<linearGradient id="paint19_linear_320_50" x1="91.6087" y1="109.922" x2="63.2916" y2="114.488" gradientUnits="userSpaceOnUse">
<stop stop-color="#68E1FD"/>
<stop offset="0.08" stop-color="#84E6FD"/>
<stop offset="0.21" stop-color="#A9EEFE"/>
<stop offset="0.35" stop-color="#C8F4FE"/>
<stop offset="0.49" stop-color="#E0F9FF"/>
<stop offset="0.64" stop-color="#F2FCFF"/>
<stop offset="0.8" stop-color="#FCFEFF"/>
<stop offset="1" stop-color="white"/>
</linearGradient>
<linearGradient id="paint20_linear_320_50" x1="66.4687" y1="121.098" x2="90.3891" y2="121.098" gradientUnits="userSpaceOnUse">
<stop stop-color="#ECC4D7"/>
<stop offset="0.42" stop-color="#EFD4D1"/>
<stop offset="1" stop-color="#F2EAC9"/>
</linearGradient>
<linearGradient id="paint21_linear_320_50" x1="312.176" y1="102.6" x2="184.354" y2="100.688" gradientUnits="userSpaceOnUse">
<stop stop-color="white" stop-opacity="0"/>
<stop offset="1" stop-color="white"/>
</linearGradient>
<linearGradient id="paint22_linear_320_50" x1="102.513" y1="130.789" x2="126.69" y2="130.789" gradientUnits="userSpaceOnUse">
<stop stop-color="#ECC4D7"/>
<stop offset="0.42" stop-color="#EFD4D1"/>
<stop offset="1" stop-color="#F2EAC9"/>
</linearGradient>
<linearGradient id="paint23_linear_320_50" x1="102.442" y1="220.823" x2="111.916" y2="220.823" gradientUnits="userSpaceOnUse">
<stop stop-color="#ECC4D7"/>
<stop offset="0.42" stop-color="#EFD4D1"/>
<stop offset="1" stop-color="#F2EAC9"/>
</linearGradient>
<linearGradient id="paint24_linear_320_50" x1="85.7926" y1="218.492" x2="95.6774" y2="218.492" gradientUnits="userSpaceOnUse">
<stop stop-color="#ECC4D7"/>
<stop offset="0.42" stop-color="#EFD4D1"/>
<stop offset="1" stop-color="#F2EAC9"/>
</linearGradient>
<linearGradient id="paint25_linear_320_50" x1="63.1994" y1="147.863" x2="79.4128" y2="142.621" gradientUnits="userSpaceOnUse">
<stop stop-color="white" stop-opacity="0"/>
<stop offset="1" stop-color="#E7FAFF"/>
</linearGradient>
<linearGradient id="paint26_linear_320_50" x1="84.0144" y1="108.938" x2="92.8437" y2="107.873" gradientUnits="userSpaceOnUse">
<stop stop-color="#ECC4D7"/>
<stop offset="0.42" stop-color="#EFD4D1"/>
<stop offset="1" stop-color="#F2EAC9"/>
</linearGradient>
</defs>
</svg>
