<svg width="28" height="28" viewBox="0 0 44 44" fill="none" xmlns="http://www.w3.org/2000/svg">
		<g clip-path="url(#clip0_68_44)">
			<path
				d="M22 3.66669C32.1237 3.66669 40.3334 10.9597 40.3334 19.9632C40.3319 22.6641 39.2582 25.2539 37.3482 27.1635C35.4382 29.0732 32.8482 30.1464 30.1474 30.1474H26.543C24.8527 30.1474 23.4869 31.5132 23.4869 33.2035C23.4869 33.9772 23.793 34.6904 24.2605 35.2202C24.75 35.7702 25.0562 36.4834 25.0562 37.2772C25.0562 38.9694 23.65 40.3334 22 40.3334C11.8764 40.3334 3.66669 32.1237 3.66669 22C3.66669 11.8764 11.8764 3.66669 22 3.66669ZM19.8202 33.2035C19.8195 32.3205 19.9929 31.4459 20.3305 30.6299C20.6681 29.814 21.1632 29.0726 21.7876 28.4481C22.4121 27.8237 23.1535 27.3286 23.9694 26.991C24.7854 26.6534 25.66 26.48 26.543 26.4807H30.1474C31.8755 26.4797 33.5326 25.7931 34.7549 24.5714C35.9771 23.3498 36.6647 21.6931 36.6667 19.965C36.6667 13.0882 30.1914 7.33335 22 7.33335C18.2152 7.3299 14.5756 8.78968 11.8422 11.4075C9.10878 14.0253 7.49314 17.5984 7.33309 21.3798C7.17305 25.1612 8.48099 28.8581 10.9835 31.6975C13.4859 34.5369 16.9892 36.299 20.7607 36.6154C20.1468 35.5837 19.822 34.4058 19.8202 33.2054V33.2035ZM13.75 22C13.0207 22 12.3212 21.7103 11.8055 21.1946C11.2898 20.6788 11 19.9794 11 19.25C11 18.5207 11.2898 17.8212 11.8055 17.3055C12.3212 16.7898 13.0207 16.5 13.75 16.5C14.4794 16.5 15.1788 16.7898 15.6946 17.3055C16.2103 17.8212 16.5 18.5207 16.5 19.25C16.5 19.9794 16.2103 20.6788 15.6946 21.1946C15.1788 21.7103 14.4794 22 13.75 22ZM30.25 22C29.5207 22 28.8212 21.7103 28.3055 21.1946C27.7898 20.6788 27.5 19.9794 27.5 19.25C27.5 18.5207 27.7898 17.8212 28.3055 17.3055C28.8212 16.7898 29.5207 16.5 30.25 16.5C30.9794 16.5 31.6788 16.7898 32.1946 17.3055C32.7103 17.8212 33 18.5207 33 19.25C33 19.9794 32.7103 20.6788 32.1946 21.1946C31.6788 21.7103 30.9794 22 30.25 22ZM22 16.5C21.2707 16.5 20.5712 16.2103 20.0555 15.6946C19.5398 15.1788 19.25 14.4794 19.25 13.75C19.25 13.0207 19.5398 12.3212 20.0555 11.8055C20.5712 11.2898 21.2707 11 22 11C22.7294 11 23.4288 11.2898 23.9446 11.8055C24.4603 12.3212 24.75 13.0207 24.75 13.75C24.75 14.4794 24.4603 15.1788 23.9446 15.6946C23.4288 16.2103 22.7294 16.5 22 16.5Z"
				fill="white"></path>
		</g>
		<defs>
			<clipPath id="clip0_68_44">
				<rect width="44" height="44" fill="white"></rect>
			</clipPath>
		</defs>
	</svg>