<svg width="28" height="28" viewBox="0 0 44 44" fill="none" xmlns="http://www.w3.org/2000/svg">
		<g clip-path="url(#clip0_66_4)">
			<path
				d="M22.0019 8.30319C26.3084 4.43669 32.9634 4.56502 37.1122 8.72119C41.2592 12.8792 41.4022 19.5012 37.5449 23.8205L21.9982 39.3892L6.4552 23.8205C2.59786 19.5012 2.7427 12.8682 6.88786 8.72119C11.0404 4.57052 17.6825 4.43119 22.0019 8.30319ZM34.5162 11.3117C31.7662 8.55802 27.3295 8.44619 24.4512 11.0312L22.0037 13.2275L19.5544 11.033C16.6669 8.44436 12.2394 8.55802 9.48203 11.3154C6.75036 14.047 6.61286 18.4195 9.13003 21.3089L22 34.199L34.87 21.3107C37.389 18.4195 37.2515 14.0525 34.5162 11.3117Z"
				fill="white"></path>
		</g>
		<defs>
			<clipPath id="clip0_66_4">
				<rect width="44" height="44" fill="white"></rect>
			</clipPath>
		</defs>
	</svg>