<svg width="338" height="213" viewBox="0 0 338 213" fill="none" xmlns="http://www.w3.org/2000/svg">
<path d="M327.307 1.01489H9.93687C5.00946 1.01489 1.01501 5.00934 1.01501 9.93674V202.787C1.01501 207.714 5.00946 211.709 9.93687 211.709H327.307C332.234 211.709 336.229 207.714 336.229 202.787V9.93674C336.229 5.00934 332.234 1.01489 327.307 1.01489Z" fill="white"/>
<path d="M327.307 1.015C328.479 1.01366 329.64 1.24352 330.723 1.69142C331.806 2.13931 332.79 2.79644 333.619 3.62517C334.447 4.45391 335.105 5.43797 335.552 6.52103C336 7.60408 336.23 8.76484 336.229 9.93685V202.787C336.23 203.959 336 205.12 335.552 206.203C335.105 207.286 334.447 208.27 333.619 209.099C332.79 209.927 331.806 210.584 330.723 211.032C329.64 211.48 328.479 211.71 327.307 211.709H9.93685C8.76484 211.71 7.60408 211.48 6.52103 211.032C5.43797 210.584 4.45391 209.927 3.62517 209.099C2.79644 208.27 2.13931 207.286 1.69142 206.203C1.24352 205.12 1.01366 203.959 1.015 202.787V9.93685C1.01366 8.76484 1.24352 7.60408 1.69142 6.52103C2.13931 5.43797 2.79644 4.45391 3.62517 3.62517C4.45391 2.79644 5.43797 2.13931 6.52103 1.69142C7.60408 1.24352 8.76484 1.01366 9.93685 1.015H327.307ZM327.307 0H9.93685C7.30226 0.00268699 4.77634 1.05047 2.91341 2.91341C1.05047 4.77634 0.00268699 7.30226 0 9.93685V202.787C0.00268699 205.421 1.05047 207.947 2.91341 209.81C4.77634 211.673 7.30226 212.721 9.93685 212.724H327.307C329.942 212.721 332.468 211.673 334.33 209.81C336.193 207.947 337.241 205.421 337.244 202.787V9.93685C337.241 7.30226 336.193 4.77634 334.33 2.91341C332.468 1.05047 329.942 0.00268699 327.307 0V0Z" fill="#231F20"/>
<path d="M336.229 9.93675V202.787C336.23 203.959 336 205.12 335.552 206.203C335.105 207.286 334.447 208.27 333.619 209.098C332.79 209.927 331.806 210.584 330.723 211.032C329.64 211.48 328.479 211.71 327.307 211.709H204.797C180.775 181.852 167.678 144.682 167.678 106.362C167.678 68.0412 180.775 30.8715 204.797 1.0149H327.307C328.479 1.01356 329.64 1.24342 330.723 1.69131C331.806 2.13921 332.79 2.79633 333.619 3.62507C334.447 4.45381 335.105 5.43787 335.552 6.52092C336 7.60398 336.23 8.76474 336.229 9.93675V9.93675Z" fill="#2B95F6"/>
<path d="M336.229 9.93675V202.787C336.23 203.959 336 205.12 335.552 206.203C335.105 207.286 334.447 208.27 333.619 209.098C332.79 209.927 331.806 210.584 330.723 211.032C329.64 211.48 328.479 211.71 327.307 211.709H204.797C189.941 193.298 179.158 171.946 173.159 149.063C173.108 148.89 173.068 148.728 173.027 148.555C172.986 148.383 172.936 148.22 172.895 148.048C166.444 122.745 165.969 96.2877 171.505 70.769C177.042 45.2503 188.44 21.3695 204.797 1.0149H327.307C328.479 1.01356 329.64 1.24342 330.723 1.69131C331.806 2.13921 332.79 2.79633 333.619 3.62507C334.447 4.45381 335.105 5.43787 335.552 6.52092C336 7.60398 336.23 8.76474 336.229 9.93675V9.93675Z" fill="#2B95F6"/>
<path d="M237.896 148.048L237.723 148.555L237.551 149.063H173.159C173.108 148.89 173.068 148.728 173.027 148.555C172.986 148.383 172.936 148.22 172.895 148.048H237.896Z" fill="#231F20"/>
<path d="M278.952 79.6266L265.757 89.6244C265.71 89.6697 265.653 89.7045 265.591 89.7263C265.529 89.7482 265.463 89.7567 265.397 89.7513C265.332 89.7458 265.268 89.7266 265.21 89.6948C265.153 89.6631 265.102 89.6195 265.063 89.5669C265.023 89.5143 264.995 89.454 264.981 89.3899C264.966 89.3257 264.965 89.2592 264.978 89.1946C264.991 89.1301 265.017 89.069 265.055 89.0154C265.093 88.9617 265.142 88.9168 265.199 88.8834L278.394 78.8857C278.442 78.8467 278.497 78.818 278.556 78.8014C278.616 78.7848 278.678 78.7807 278.739 78.7893C278.8 78.7978 278.859 78.819 278.911 78.8513C278.963 78.8836 279.009 78.9264 279.044 78.977C279.117 79.0756 279.149 79.199 279.131 79.3206C279.114 79.4422 279.05 79.5521 278.952 79.6266V79.6266Z" fill="#2B95F6"/>
<path d="M266.61 118.085C266.535 117.989 266.5 117.867 266.513 117.746C266.526 117.624 266.587 117.513 266.681 117.436L323.917 71.9433C323.964 71.9008 324.02 71.8684 324.08 71.8483C324.141 71.8281 324.205 71.8205 324.268 71.8259C324.332 71.8314 324.393 71.8497 324.449 71.8799C324.506 71.91 324.555 71.9514 324.594 72.0013C324.634 72.0512 324.663 72.1087 324.679 72.1703C324.696 72.2318 324.7 72.296 324.69 72.3591C324.681 72.4221 324.659 72.4825 324.625 72.5367C324.592 72.5909 324.548 72.6376 324.496 72.6741L267.219 118.156C267.14 118.224 267.039 118.26 266.935 118.258C266.872 118.252 266.811 118.234 266.755 118.205C266.699 118.175 266.65 118.134 266.61 118.085Z" fill="#2B95F6"/>
<path d="M298.197 121.587C298.159 121.539 298.131 121.484 298.114 121.426C298.097 121.367 298.093 121.305 298.1 121.245C298.108 121.184 298.128 121.126 298.158 121.073C298.189 121.02 298.229 120.974 298.278 120.937L332.392 94.6588C332.491 94.5856 332.614 94.5541 332.736 94.5712C332.857 94.5883 332.967 94.6526 333.042 94.7502C333.114 94.8484 333.145 94.9703 333.13 95.0911C333.115 95.2119 333.054 95.3223 332.961 95.3998L298.846 121.688C298.799 121.726 298.744 121.755 298.685 121.771C298.627 121.788 298.565 121.792 298.505 121.785C298.444 121.777 298.386 121.758 298.333 121.727C298.28 121.697 298.234 121.656 298.197 121.607V121.587Z" fill="#2B95F6"/>
<path d="M248.624 137.319H336.229V154.656H244.524C244.211 154.655 243.903 154.583 243.623 154.444C243.343 154.305 243.099 154.103 242.91 153.854C242.724 153.602 242.599 153.311 242.544 153.003C242.49 152.694 242.507 152.378 242.595 152.078L246.513 138.883C246.647 138.428 246.926 138.03 247.307 137.748C247.688 137.466 248.15 137.315 248.624 137.319V137.319Z" fill="#2B95F6"/>
<path d="M336.229 171.109V176.651H232.323C230.841 176.651 229.187 175.443 229.187 173.971V171.109H336.229Z" fill="#231F20"/>
<path d="M336.229 137.319V154.655H244.524C244.211 154.655 243.903 154.583 243.623 154.443C243.343 154.304 243.099 154.103 242.91 153.854C242.724 153.602 242.599 153.311 242.544 153.002C242.49 152.694 242.507 152.378 242.595 152.077L243.488 149.032L243.641 148.525L243.793 148.017L246.513 138.882C246.646 138.426 246.924 138.025 247.305 137.741C247.686 137.458 248.149 137.306 248.624 137.309L336.229 137.319Z" fill="white"/>
<path d="M336.229 137.319V154.656H244.524C244.211 154.655 243.903 154.583 243.623 154.444C243.343 154.304 243.099 154.103 242.91 153.854C242.724 153.602 242.599 153.311 242.544 153.002C242.49 152.694 242.507 152.378 242.595 152.077L243.488 149.032L243.641 148.525L243.793 148.017L246.513 138.882C246.646 138.426 246.924 138.026 247.305 137.742C247.686 137.458 248.149 137.306 248.624 137.309H336.229M337.244 136.294H248.624C247.936 136.296 247.266 136.522 246.717 136.938C246.168 137.353 245.768 137.936 245.579 138.598L242.859 147.733L242.707 148.231L242.555 148.738L241.661 151.783C241.529 152.235 241.504 152.711 241.586 153.174C241.669 153.637 241.858 154.075 242.138 154.453C242.422 154.827 242.789 155.132 243.21 155.341C243.63 155.551 244.094 155.66 244.564 155.66H337.285V136.304L337.244 136.294Z" fill="#231F20"/>
<path d="M336.229 132.853V133.767H247.508C247.275 133.752 247.041 133.752 246.807 133.767C245.542 133.897 244.34 134.389 243.345 135.182C242.35 135.976 241.603 137.038 241.194 138.243L237.896 147.987L237.723 148.494L237.551 149.002L230.192 170.723C230.152 170.828 230.124 170.937 230.111 171.048V171.048C230.107 171.112 230.107 171.176 230.111 171.241C230.113 171.691 230.294 172.122 230.614 172.44C230.933 172.757 231.365 172.936 231.816 172.936H336.229V173.869H231.806C231.381 173.869 230.963 173.767 230.587 173.571C230.21 173.375 229.887 173.091 229.644 172.743C229.364 172.339 229.205 171.864 229.187 171.373C229.182 171.329 229.182 171.284 229.187 171.241C229.182 171.166 229.182 171.092 229.187 171.017V171.017C229.206 170.824 229.247 170.633 229.309 170.449L236.566 149.022L236.739 148.515L236.911 148.007L240.311 137.959C240.646 136.976 241.179 136.073 241.878 135.304C242.576 134.536 243.425 133.92 244.371 133.493C244.615 133.369 244.87 133.271 245.133 133.198C245.891 132.942 246.687 132.812 247.487 132.813L336.229 132.853Z" fill="#231F20"/>
<path d="M276.212 168.825C275.968 168.827 275.727 168.774 275.507 168.668C275.287 168.562 275.094 168.408 274.943 168.216C274.796 168.027 274.691 167.809 274.637 167.576C274.582 167.343 274.58 167.1 274.629 166.866L276.242 159.538C276.374 158.957 276.701 158.439 277.168 158.07C277.635 157.7 278.215 157.502 278.81 157.508H307.342C307.937 157.502 308.517 157.7 308.984 158.07C309.451 158.439 309.778 158.957 309.91 159.538L311.524 166.856C311.573 167.092 311.57 167.337 311.513 167.572C311.457 167.807 311.349 168.027 311.198 168.215C311.046 168.403 310.855 168.556 310.638 168.661C310.42 168.767 310.182 168.823 309.94 168.825H276.212Z" fill="white"/>
<path d="M309.372 159.649C309.273 159.183 309.018 158.764 308.649 158.461C308.28 158.159 307.819 157.991 307.342 157.985H278.77C278.293 157.991 277.832 158.159 277.463 158.461C277.094 158.764 276.839 159.183 276.74 159.649L275.126 166.968C275.091 167.13 275.092 167.298 275.131 167.46C275.17 167.622 275.244 167.773 275.349 167.901C275.451 168.033 275.582 168.139 275.732 168.211C275.881 168.283 276.046 168.32 276.212 168.318H309.94C310.106 168.317 310.27 168.279 310.419 168.207C310.569 168.135 310.701 168.03 310.805 167.901C310.909 167.772 310.982 167.621 311.021 167.459C311.059 167.298 311.061 167.13 311.026 166.968L309.372 159.649Z" fill="white"/>
<path d="M307.301 157.985C307.779 157.991 308.239 158.158 308.608 158.461C308.977 158.764 309.232 159.183 309.331 159.649L310.945 166.968C310.98 167.13 310.978 167.298 310.94 167.459C310.901 167.621 310.827 167.772 310.723 167.901C310.619 168.03 310.488 168.135 310.338 168.207C310.189 168.279 310.025 168.317 309.859 168.317H276.212C276.046 168.319 275.881 168.283 275.732 168.211C275.582 168.139 275.451 168.033 275.349 167.901C275.244 167.772 275.17 167.622 275.131 167.46C275.092 167.298 275.091 167.13 275.126 166.968L276.74 159.649C276.839 159.183 277.094 158.764 277.463 158.461C277.832 158.158 278.293 157.991 278.77 157.985H307.301M307.301 156.97H278.77C278.057 156.97 277.365 157.216 276.811 157.664C276.257 158.113 275.873 158.739 275.725 159.436L274.111 166.744C274.044 167.057 274.048 167.38 274.122 167.691C274.195 168.001 274.337 168.292 274.537 168.541C274.74 168.786 274.997 168.981 275.287 169.111C275.578 169.241 275.894 169.303 276.212 169.292H309.94C310.258 169.293 310.572 169.222 310.858 169.085C311.145 168.948 311.396 168.748 311.595 168.5C311.794 168.253 311.935 167.964 312.009 167.655C312.083 167.346 312.087 167.025 312.021 166.714L310.407 159.385C310.257 158.69 309.872 158.067 309.318 157.62C308.764 157.173 308.074 156.929 307.362 156.929L307.301 156.97Z" fill="#231F20"/>
<path d="M278.952 79.6266L265.757 89.6244C265.71 89.6697 265.653 89.7045 265.591 89.7263C265.529 89.7482 265.463 89.7567 265.397 89.7513C265.332 89.7458 265.268 89.7266 265.21 89.6948C265.153 89.6631 265.102 89.6195 265.063 89.5669C265.023 89.5143 264.995 89.454 264.981 89.3899C264.966 89.3257 264.965 89.2592 264.978 89.1946C264.991 89.1301 265.017 89.069 265.055 89.0154C265.093 88.9617 265.142 88.9168 265.199 88.8834L278.394 78.8857C278.442 78.8467 278.497 78.818 278.556 78.8014C278.616 78.7848 278.678 78.7807 278.739 78.7893C278.8 78.7978 278.859 78.819 278.911 78.8513C278.963 78.8836 279.009 78.9264 279.044 78.977C279.117 79.0756 279.149 79.199 279.131 79.3206C279.114 79.4422 279.05 79.5521 278.952 79.6266V79.6266Z" fill="#231F20"/>
<path d="M266.61 118.085C266.535 117.989 266.5 117.867 266.513 117.746C266.526 117.624 266.587 117.513 266.681 117.436L323.917 71.9433C323.964 71.9008 324.02 71.8684 324.08 71.8483C324.141 71.8281 324.205 71.8205 324.268 71.8259C324.332 71.8314 324.393 71.8497 324.449 71.8799C324.506 71.91 324.555 71.9514 324.594 72.0013C324.634 72.0512 324.663 72.1087 324.679 72.1703C324.696 72.2318 324.7 72.296 324.69 72.3591C324.681 72.4221 324.659 72.4825 324.625 72.5367C324.592 72.5909 324.548 72.6376 324.496 72.6741L267.219 118.156C267.14 118.224 267.039 118.26 266.935 118.258C266.872 118.252 266.811 118.234 266.755 118.205C266.699 118.175 266.65 118.134 266.61 118.085Z" fill="#231F20"/>
<path d="M298.197 121.587C298.159 121.539 298.131 121.484 298.114 121.426C298.097 121.367 298.093 121.305 298.1 121.245C298.108 121.184 298.128 121.126 298.158 121.073C298.189 121.02 298.229 120.974 298.278 120.937L332.392 94.6588C332.491 94.5856 332.614 94.5541 332.736 94.5712C332.857 94.5883 332.967 94.6526 333.042 94.7502C333.114 94.8484 333.145 94.9703 333.13 95.0911C333.115 95.2119 333.054 95.3223 332.961 95.3998L298.846 121.688C298.799 121.726 298.744 121.755 298.685 121.771C298.627 121.788 298.565 121.792 298.505 121.785C298.444 121.777 298.386 121.758 298.333 121.727C298.28 121.697 298.234 121.656 298.197 121.607V121.587Z" fill="#231F20"/>
<path d="M336.229 63.2751V68.1065H247.508V128.387H336.229V133.32H245.894C245.631 133.319 245.37 133.292 245.112 133.239C244.306 133.057 243.585 132.606 243.069 131.961C242.552 131.315 242.271 130.513 242.27 129.687V66.9088C242.269 66.4321 242.362 65.9599 242.543 65.5191C242.725 65.0783 242.991 64.6776 243.328 64.34C243.665 64.0025 244.065 63.7347 244.505 63.5519C244.945 63.3692 245.417 63.2751 245.894 63.2751H336.229Z" fill="#231F20"/>
<path d="M245.934 62.7676C244.838 62.7703 243.787 63.2078 243.013 63.9841C242.238 64.7604 241.803 65.8122 241.803 66.9088V129.707C241.806 130.532 242.053 131.338 242.514 132.023C242.975 132.708 243.628 133.24 244.392 133.554C244.621 133.637 244.855 133.708 245.092 133.767V133.767C245.366 133.82 245.645 133.847 245.924 133.848H336.259V132.833H245.924C245.515 132.832 245.11 132.75 244.733 132.592C244.355 132.434 244.012 132.203 243.724 131.913C243.435 131.623 243.207 131.279 243.052 130.9C242.896 130.521 242.817 130.116 242.818 129.707V66.9088C242.817 66.4987 242.897 66.0924 243.053 65.7132C243.209 65.334 243.438 64.9893 243.728 64.6988C244.017 64.4084 244.361 64.178 244.74 64.0207C245.118 63.8635 245.524 63.7826 245.934 63.7826H336.269V62.7676H245.934Z" fill="#231F20"/>
<path d="M278.952 79.6266L265.757 89.6244C265.71 89.6697 265.653 89.7045 265.591 89.7263C265.529 89.7482 265.463 89.7567 265.397 89.7513C265.332 89.7458 265.268 89.7266 265.21 89.6948C265.153 89.6631 265.102 89.6195 265.063 89.5669C265.023 89.5143 264.995 89.454 264.981 89.3899C264.966 89.3257 264.965 89.2592 264.978 89.1946C264.991 89.1301 265.017 89.069 265.055 89.0154C265.093 88.9617 265.142 88.9168 265.199 88.8834L278.394 78.8857C278.442 78.8467 278.497 78.818 278.556 78.8014C278.616 78.7848 278.678 78.7807 278.739 78.7893C278.8 78.7978 278.859 78.819 278.911 78.8513C278.963 78.8836 279.009 78.9264 279.044 78.977C279.117 79.0756 279.149 79.199 279.131 79.3206C279.114 79.4422 279.05 79.5521 278.952 79.6266V79.6266Z" fill="#2B95F6"/>
<path d="M324.536 72.6741L267.26 118.156C267.18 118.224 267.079 118.26 266.975 118.258C266.881 118.256 266.789 118.225 266.712 118.17C266.635 118.115 266.576 118.037 266.544 117.948C266.512 117.859 266.508 117.762 266.533 117.671C266.557 117.579 266.609 117.497 266.681 117.436L323.917 71.9433C323.964 71.9008 324.02 71.8684 324.08 71.8483C324.141 71.8281 324.205 71.8205 324.268 71.8259C324.332 71.8314 324.393 71.8497 324.449 71.8799C324.506 71.91 324.555 71.9514 324.594 72.0013C324.634 72.0512 324.663 72.1087 324.679 72.1703C324.696 72.2318 324.7 72.296 324.69 72.3591C324.681 72.4221 324.659 72.4825 324.625 72.5367C324.592 72.5909 324.548 72.6376 324.495 72.6741H324.536Z" fill="#2B95F6"/>
<path d="M333.052 94.7705C333.124 94.8687 333.155 94.9906 333.14 95.1114C333.125 95.2321 333.065 95.3426 332.971 95.4201L298.846 121.688C298.799 121.726 298.744 121.755 298.685 121.771C298.627 121.788 298.565 121.792 298.505 121.785C298.444 121.777 298.386 121.758 298.333 121.727C298.28 121.697 298.234 121.656 298.197 121.607C298.159 121.559 298.131 121.505 298.114 121.446C298.097 121.387 298.093 121.326 298.1 121.265C298.108 121.205 298.128 121.146 298.158 121.093C298.189 121.04 298.229 120.994 298.278 120.957L332.392 94.6791C332.441 94.6413 332.497 94.6136 332.557 94.5977C332.617 94.5817 332.68 94.5779 332.741 94.5864C332.803 94.5949 332.862 94.6156 332.915 94.6472C332.968 94.6788 333.015 94.7207 333.052 94.7705V94.7705Z" fill="#2B95F6"/>
<path d="M324.536 72.6741L267.26 118.156C267.18 118.224 267.079 118.26 266.975 118.258C266.881 118.256 266.789 118.225 266.712 118.17C266.635 118.115 266.576 118.037 266.544 117.948C266.512 117.859 266.508 117.762 266.533 117.671C266.557 117.579 266.609 117.497 266.681 117.436L323.917 71.9433C323.964 71.9008 324.02 71.8684 324.08 71.8483C324.141 71.8281 324.205 71.8205 324.268 71.8259C324.332 71.8314 324.393 71.8497 324.449 71.8799C324.506 71.91 324.555 71.9514 324.594 72.0013C324.634 72.0512 324.663 72.1087 324.679 72.1703C324.696 72.2318 324.7 72.296 324.69 72.3591C324.681 72.4221 324.659 72.4825 324.625 72.5367C324.592 72.5909 324.548 72.6376 324.495 72.6741H324.536Z" fill="white"/>
<path d="M332.961 95.42L298.846 121.688C298.799 121.726 298.744 121.755 298.685 121.771C298.627 121.788 298.565 121.792 298.505 121.785C298.444 121.777 298.386 121.758 298.333 121.727C298.28 121.697 298.234 121.656 298.197 121.607C298.159 121.559 298.131 121.505 298.114 121.446C298.097 121.387 298.093 121.326 298.1 121.265C298.108 121.205 298.128 121.146 298.158 121.093C298.189 121.04 298.229 120.994 298.278 120.957L332.392 94.6791C332.491 94.6059 332.614 94.5744 332.736 94.5915C332.857 94.6086 332.967 94.6729 333.042 94.7704C333.114 94.8686 333.145 94.9906 333.13 95.1114C333.115 95.2321 333.054 95.3425 332.961 95.42Z" fill="white"/>
<path d="M278.952 79.6266L265.757 89.6244C265.71 89.6697 265.653 89.7045 265.591 89.7263C265.529 89.7482 265.463 89.7567 265.397 89.7513C265.332 89.7458 265.268 89.7266 265.21 89.6948C265.153 89.6631 265.102 89.6195 265.063 89.5669C265.023 89.5143 264.995 89.454 264.981 89.3899C264.966 89.3257 264.965 89.2592 264.978 89.1946C264.991 89.1301 265.017 89.069 265.055 89.0154C265.093 88.9617 265.142 88.9168 265.199 88.8834L278.394 78.8857C278.442 78.8467 278.497 78.818 278.556 78.8014C278.616 78.7848 278.678 78.7807 278.739 78.7893C278.8 78.7978 278.859 78.819 278.911 78.8513C278.963 78.8836 279.009 78.9264 279.044 78.977C279.117 79.0756 279.149 79.199 279.131 79.3206C279.114 79.4422 279.05 79.5521 278.952 79.6266V79.6266Z" fill="white"/>
<path d="M336.229 9.93675V21.9645H1.01502V9.93675C1.01368 8.76474 1.24354 7.60398 1.69144 6.52092C2.13933 5.43787 2.79646 4.45381 3.62519 3.62507C4.45393 2.79633 5.43799 2.13921 6.52105 1.69131C7.6041 1.24342 8.76486 1.01356 9.93687 1.0149H327.307C328.479 1.01356 329.64 1.24342 330.723 1.69131C331.806 2.13921 332.79 2.79633 333.619 3.62507C334.447 4.45381 335.105 5.43787 335.553 6.52092C336 7.60398 336.23 8.76474 336.229 9.93675V9.93675Z" fill="white"/>
<path d="M327.307 1.015C328.479 1.01366 329.64 1.24352 330.723 1.69142C331.806 2.13931 332.79 2.79644 333.619 3.62517C334.447 4.45391 335.105 5.43797 335.552 6.52103C336 7.60408 336.23 8.76484 336.229 9.93685V21.9646H1.015V9.93685C1.01366 8.76484 1.24352 7.60408 1.69142 6.52103C2.13931 5.43797 2.79644 4.45391 3.62517 3.62517C4.45391 2.79644 5.43797 2.13931 6.52103 1.69142C7.60408 1.24352 8.76484 1.01366 9.93685 1.015H327.307ZM327.307 0H9.93685C7.30226 0.00268699 4.77634 1.05047 2.91341 2.91341C1.05047 4.77634 0.00268699 7.30226 0 9.93685V22.9796H337.244V9.93685C337.241 7.30226 336.193 4.77634 334.33 2.91341C332.468 1.05047 329.942 0.00268699 327.307 0V0Z" fill="#231F20"/>
<path d="M232.668 44.7007H209.496C209.227 44.7007 208.969 44.5937 208.778 44.4034C208.588 44.213 208.481 43.9548 208.481 43.6857C208.481 43.4165 208.588 43.1583 208.778 42.9679C208.969 42.7776 209.227 42.6707 209.496 42.6707H232.668C232.938 42.6707 233.196 42.7776 233.386 42.9679C233.577 43.1583 233.683 43.4165 233.683 43.6857C233.683 43.9548 233.577 44.213 233.386 44.4034C233.196 44.5937 232.938 44.7007 232.668 44.7007Z" fill="white"/>
<path d="M267.727 44.7007H244.554C244.285 44.7007 244.027 44.5937 243.836 44.4034C243.646 44.213 243.539 43.9548 243.539 43.6857C243.539 43.4165 243.646 43.1583 243.836 42.9679C244.027 42.7776 244.285 42.6707 244.554 42.6707H267.727C267.996 42.6707 268.254 42.7776 268.444 42.9679C268.635 43.1583 268.742 43.4165 268.742 43.6857C268.742 43.9548 268.635 44.213 268.444 44.4034C268.254 44.5937 267.996 44.7007 267.727 44.7007Z" fill="white"/>
<path d="M302.775 44.7007H279.602C279.333 44.7007 279.075 44.5937 278.884 44.4034C278.694 44.213 278.587 43.9548 278.587 43.6857C278.587 43.4165 278.694 43.1583 278.884 42.9679C279.075 42.7776 279.333 42.6707 279.602 42.6707H302.775C303.044 42.6707 303.302 42.7776 303.492 42.9679C303.683 43.1583 303.79 43.4165 303.79 43.6857C303.79 43.9548 303.683 44.213 303.492 44.4034C303.302 44.5937 303.044 44.7007 302.775 44.7007V44.7007Z" fill="white"/>
<path d="M112.097 96.3743H22.9695C21.7581 96.3743 20.5963 95.893 19.7398 95.0365C18.8832 94.1799 18.402 93.0181 18.402 91.8068C18.402 90.5954 18.8832 89.4336 19.7398 88.577C20.5963 87.7205 21.7581 87.2393 22.9695 87.2393H112.097C113.308 87.2393 114.47 87.7205 115.326 88.577C116.183 89.4336 116.664 90.5954 116.664 91.8068C116.664 93.0181 116.183 94.1799 115.326 95.0365C114.47 95.893 113.308 96.3743 112.097 96.3743V96.3743Z" fill="#D1D3D4"/>
<path d="M124.459 116.096H22.9695C21.7581 116.096 20.5963 115.614 19.7398 114.758C18.8832 113.901 18.402 112.74 18.402 111.528C18.402 110.317 18.8832 109.155 19.7398 108.298C20.5963 107.442 21.7581 106.961 22.9695 106.961H124.469C125.681 106.961 126.843 107.442 127.699 108.298C128.556 109.155 129.037 110.317 129.037 111.528C129.037 112.74 128.556 113.901 127.699 114.758C126.843 115.614 125.681 116.096 124.469 116.096H124.459Z" fill="#D1D3D4"/>
<path d="M91.2181 136H22.9695C22.8349 136 22.7058 135.946 22.6106 135.851C22.5154 135.756 22.462 135.627 22.462 135.492C22.462 135.358 22.5154 135.229 22.6106 135.134C22.7058 135.038 22.8349 134.985 22.9695 134.985H91.2181C91.3527 134.985 91.4818 135.038 91.5769 135.134C91.6721 135.229 91.7256 135.358 91.7256 135.492C91.7256 135.627 91.6721 135.756 91.5769 135.851C91.4818 135.946 91.3527 136 91.2181 136Z" fill="#D1D3D4"/>
<path d="M80.317 147.977H22.9695C22.8349 147.977 22.7058 147.923 22.6106 147.828C22.5154 147.733 22.462 147.604 22.462 147.469C22.462 147.335 22.5154 147.206 22.6106 147.111C22.7058 147.015 22.8349 146.962 22.9695 146.962H80.317C80.4516 146.962 80.5807 147.015 80.6758 147.111C80.771 147.206 80.8245 147.335 80.8245 147.469C80.8219 147.603 80.7676 147.731 80.673 147.825C80.5783 147.92 80.4508 147.974 80.317 147.977V147.977Z" fill="#D1D3D4"/>
<path d="M89.3505 163.709H30.3688C26.2823 163.709 22.9695 167.022 22.9695 171.109C22.9695 175.195 26.2823 178.508 30.3688 178.508H89.3505C93.437 178.508 96.7498 175.195 96.7498 171.109C96.7498 167.022 93.437 163.709 89.3505 163.709Z" fill="#2B95F6"/>
<path d="M74.8157 44.7007H51.6432C51.374 44.7007 51.1158 44.5937 50.9255 44.4034C50.7351 44.213 50.6282 43.9548 50.6282 43.6857C50.6282 43.4165 50.7351 43.1583 50.9255 42.9679C51.1158 42.7776 51.374 42.6707 51.6432 42.6707H74.8157C75.0849 42.6707 75.343 42.7776 75.5334 42.9679C75.7237 43.1583 75.8307 43.4165 75.8307 43.6857C75.8307 43.9548 75.7237 44.213 75.5334 44.4034C75.343 44.5937 75.0849 44.7007 74.8157 44.7007Z" fill="#D1D3D4"/>
<path d="M30.7038 52.3028C34.9753 52.3028 38.4381 48.8401 38.4381 44.5685C38.4381 40.297 34.9753 36.8342 30.7038 36.8342C26.4322 36.8342 22.9695 40.297 22.9695 44.5685C22.9695 48.8401 26.4322 52.3028 30.7038 52.3028Z" fill="#D1D3D4"/>
<path d="M203.71 113.335C203.837 111.527 203.454 109.719 202.604 108.118C201.766 107.06 200.983 105.959 200.259 104.819C199.244 102.698 199.965 100.211 199.732 97.8765C199.531 95.9275 198.671 94.1052 197.296 92.7101C196.078 91.482 194.515 90.6801 193.357 89.3606C191.449 87.2494 190.901 84.2856 189.815 81.6669C188.278 77.9588 185.616 74.8273 182.203 72.7146C184.283 76.8862 179.553 82.1947 181.695 86.346C182.375 87.6554 183.725 88.6197 184.172 90.0102C185.369 93.3699 181.36 97.0137 182.649 100.343C183.289 102.008 185.065 102.972 185.897 104.555C187.014 106.677 186.141 109.265 186.232 111.66C186.354 114.969 188.374 117.933 190.769 120.227C192.261 121.668 193.926 122.896 195.54 124.195C197.468 125.738 198.28 127.362 199.975 124.875C202.312 121.472 203.609 117.462 203.71 113.335Z" fill="#231F20"/>
<path d="M205.862 115.233C205.243 112.665 204.847 109.884 205.862 107.468C207.05 104.728 209.993 102.789 210.338 99.8253C210.572 97.8867 209.577 95.9277 209.973 94.0094C210.369 92.091 211.922 90.7817 213.211 89.3708C216.18 86.1041 217.945 81.9218 218.215 77.5156C220.208 79.8782 221.818 82.5396 222.985 85.4022C224 88.3152 224 91.7459 222.295 94.3037C221.795 94.8985 221.387 95.5659 221.087 96.283C220.499 98.1607 222.102 99.9268 222.955 101.723C223.45 102.747 223.657 103.886 223.553 105.018C223.45 106.15 223.039 107.232 222.366 108.148C220.671 110.26 217.403 111.082 216.571 113.66C216.36 114.62 216.261 115.6 216.276 116.583C216.101 118.286 215.419 119.897 214.319 121.208C213.219 122.52 211.751 123.472 210.105 123.942C208.075 124.429 208.136 123.637 207.781 121.912C207.273 119.679 206.41 117.527 205.862 115.233Z" fill="#231F20"/>
<path d="M199.478 96.7802C198.057 91.8574 197.448 86.7114 195.986 81.7988C194.708 77.967 193.147 74.2351 191.317 70.6338L197.407 73.2119C199.366 74.034 201.467 75.0084 202.411 76.9268C204.015 80.256 201.132 84.5291 202.817 87.8279C203.554 88.8985 204.364 89.916 205.243 90.8729C207.04 93.4002 206.766 96.8715 205.771 99.815C205.355 101.074 203.497 107.62 201.843 105.804C201.183 105.073 201.122 102.363 200.828 101.368C200.452 99.8252 199.925 98.323 199.478 96.7802Z" fill="#231F20"/>
<path d="M202.838 162.248C201.63 154.189 197.763 125.809 197.763 125.515L198.778 125.383C198.778 125.667 202.635 154.047 203.853 162.096L202.838 162.248Z" fill="#231F20"/>
<path d="M205.639 151.144L204.675 150.819C205.994 146.901 206.146 142.648 206.319 138.152C206.532 132.458 206.755 126.581 209.496 121.343L210.399 121.82C207.76 126.895 207.547 132.61 207.354 138.192C207.192 142.567 206.999 147.084 205.639 151.144Z" fill="#231F20"/>
<path d="M205.213 151.103C204.492 143.693 204.106 136.416 203.721 129.372C203.264 120.998 202.797 112.33 201.792 103.631L202.807 103.52C203.822 112.249 204.289 120.927 204.746 129.311C205.121 136.345 205.517 143.622 206.228 151.001L205.213 151.103Z" fill="#231F20"/>
<path d="M192.353 133.503H215.099L213.333 159.142C213.25 160.355 212.709 161.492 211.82 162.321C210.93 163.151 209.758 163.611 208.542 163.608H198.91C197.694 163.608 196.524 163.147 195.634 162.319C194.745 161.49 194.204 160.354 194.119 159.142L192.353 133.503Z" fill="white"/>
<path d="M208.542 164.125H198.91C197.566 164.121 196.273 163.61 195.291 162.693C194.308 161.776 193.708 160.522 193.611 159.182L191.845 133.533C191.841 133.465 191.851 133.397 191.874 133.332C191.896 133.268 191.931 133.209 191.977 133.158C192.026 133.107 192.084 133.067 192.148 133.039C192.213 133.011 192.282 132.996 192.353 132.995H215.099C215.168 132.995 215.237 133.009 215.3 133.037C215.364 133.064 215.421 133.104 215.469 133.155C215.516 133.205 215.553 133.265 215.577 133.33C215.6 133.395 215.61 133.464 215.606 133.533L213.84 159.142C213.753 160.489 213.157 161.753 212.174 162.678C211.19 163.603 209.892 164.121 208.542 164.125V164.125ZM192.891 134.01L194.626 159.142C194.703 160.226 195.188 161.241 195.982 161.983C196.777 162.725 197.822 163.138 198.91 163.141H208.542C209.629 163.138 210.675 162.725 211.469 161.983C212.264 161.241 212.748 160.226 212.825 159.142L214.561 134.041L192.891 134.01Z" fill="#231F20"/>
</svg>
