<svg width="258" height="236" viewBox="0 0 258 236" fill="none" xmlns="http://www.w3.org/2000/svg">
<path d="M170.399 222.607H81.4286L96.9495 191.157H158.625L170.399 222.607Z" fill="#2B95F6"/>
<path d="M168.605 218.029H83.5135L96.9494 191.157H158.625L168.605 218.029Z" fill="url(#paint0_linear_320_49)"/>
<path d="M178.622 220.34H74.153V227.958H178.622V220.34Z" fill="#2B95F6"/>
<path d="M257.276 9.31694V189.174C257.287 190.264 257.082 191.346 256.675 192.357C256.267 193.368 255.664 194.289 254.9 195.067C254.137 195.845 253.227 196.464 252.224 196.891C251.22 197.317 250.143 197.541 249.053 197.551H8.47528C6.27235 197.531 4.1672 196.638 2.62247 195.068C1.07775 193.497 0.219849 191.377 0.237325 189.174V9.31694C0.219777 7.10989 1.07629 4.98556 2.61979 3.40791C4.1633 1.83026 6.26837 0.927474 8.47528 0.896729H249.053C251.258 0.927475 253.362 1.83073 254.903 3.40881C256.444 4.98688 257.298 7.11124 257.276 9.31694Z" fill="#2B95F6"/>
<path d="M257.283 9.31694V159.722H0.244607V9.31694C0.221266 7.10943 1.07489 4.98286 2.61805 3.40416C4.16122 1.82546 6.26779 0.923645 8.47527 0.896729H249.053C251.26 0.923645 253.367 1.82546 254.91 3.40416C256.453 4.98286 257.307 7.10943 257.283 9.31694Z" fill="url(#paint1_linear_320_49)"/>
<path d="M248.922 11.4966H9.67822V153.189H248.922V11.4966Z" fill="white"/>
<path opacity="0.2" d="M183.288 59.2185C180.948 70.584 171.084 79.1209 159.274 79.1209C145.685 79.1209 134.684 67.872 134.684 53.9987C134.673 50.637 135.329 47.3066 136.616 44.2007C136.26 45.9203 136.082 47.6718 136.083 49.4278C136.083 63.2792 147.084 74.5499 160.652 74.5499C165.519 74.5262 170.27 73.056 174.301 70.3262C178.331 67.5963 181.459 63.7301 183.288 59.2185Z" fill="#231F20"/>
<path d="M126.81 184.137C129.943 184.137 132.482 181.538 132.482 178.334C132.482 175.129 129.943 172.531 126.81 172.531C123.678 172.531 121.138 175.129 121.138 178.334C121.138 181.538 123.678 184.137 126.81 184.137Z" fill="url(#paint2_linear_320_49)"/>
<path opacity="0.2" d="M203.977 67.2815L199.508 68.4042L200.383 81.8984H177.783L176.843 67.2815L172.389 68.4042L180.634 197.551H185.176L184.41 185.762H207.01L207.775 197.551H212.288L203.977 67.2815ZM178.031 86.1923H200.631L201.637 101.815H179.037L178.031 86.1923ZM179.3 106.095H201.9L202.906 121.739H180.306L179.3 106.095ZM180.576 126.019H203.175L204.181 141.671H181.582L180.576 126.019ZM182.894 162.178L181.844 145.972H204.444L205.457 161.595H182.989L182.894 162.178ZM184.126 181.497L183.113 165.853H205.712L206.718 181.497H184.126Z" fill="#231F20"/>
<path opacity="0.07" d="M211.494 143.946C211.84 138.168 209.947 132.479 206.208 128.06C205.479 130.699 206.07 133.491 206.091 136.225C206.113 138.959 205.362 142.057 202.986 143.348C200.412 141.467 199.756 137.909 199.297 134.716C197.625 122.95 195.951 111.183 194.274 99.4169C192.59 100.233 190.512 99.5408 189.134 98.2505C187.757 96.9601 186.947 95.1886 186.167 93.4608C182.661 85.7331 179.096 77.7358 178.826 69.2281C180.146 71.036 181.509 72.8732 183.368 74.0979C185.227 75.3227 187.742 75.7747 189.652 74.6593C190.846 73.8392 191.82 72.7375 192.488 71.4516C193.807 69.301 195.069 66.8879 194.762 64.3655C194.52 63.0919 194.129 61.8512 193.596 60.6693C191.912 56.1786 191.657 51.2795 191.409 46.4753C191.318 45.7979 191.408 45.1085 191.671 44.4778C192.078 43.847 192.708 43.3938 193.436 43.2093C195.386 42.6441 197.477 42.8308 199.297 43.7324C201.116 44.634 202.531 46.185 203.263 48.0791C204.079 50.361 203.853 52.8688 203.992 55.2892C204.488 62.4919 208.475 68.9583 209.875 76.0371C210.976 81.5923 210.444 87.3297 209.912 92.9723L206.791 126.157" fill="#231F20"/>
<path d="M172.782 68.4261L215.43 234.126C215.498 234.408 215.622 234.674 215.794 234.908C215.966 235.142 216.183 235.339 216.432 235.488C216.681 235.638 216.957 235.736 217.245 235.777C217.532 235.819 217.825 235.802 218.106 235.729C218.674 235.569 219.157 235.192 219.45 234.679C219.743 234.167 219.823 233.559 219.673 232.988L213.112 207.604H235.712L242.535 234.126C242.603 234.408 242.727 234.674 242.899 234.908C243.071 235.142 243.288 235.339 243.537 235.488C243.786 235.638 244.062 235.736 244.35 235.777C244.637 235.819 244.93 235.802 245.211 235.729C245.779 235.569 246.262 235.192 246.555 234.679C246.848 234.167 246.928 233.559 246.778 232.988L204.138 67.2815L199.902 68.4261L203.416 82.0952H180.816L177.004 67.2815L172.782 68.4261ZM202.745 167.216H225.345L229.428 183.072H206.828L202.745 167.216ZM197.569 147.015H220.169L224.244 162.871H201.783V163.469L197.569 147.015ZM192.379 126.821H214.978L219.061 142.677H196.461L192.379 126.821ZM187.159 106.605H209.759L213.841 122.461H191.241L187.159 106.605ZM181.961 86.4111H204.561L208.643 102.267H186.043L181.961 86.4111ZM234.64 203.244H212.04L207.958 187.388H230.558L234.64 203.244Z" fill="#231F20"/>
<path d="M196.425 70.0955C195.739 71.5536 194.594 72.747 193.166 73.4927L187.151 77.2836C186.893 77.4226 186.674 77.626 186.517 77.8741C186.45 78.1005 186.432 78.3388 186.464 78.5727C186.497 78.8067 186.58 79.0309 186.707 79.2301C187.024 80.032 187.456 80.7835 187.99 81.4609C188.256 81.7961 188.594 82.0671 188.979 82.2539C189.364 82.4407 189.786 82.5384 190.213 82.5399C190.967 82.4256 191.676 82.1137 192.269 81.6359L199.115 76.9993C199.61 76.7203 200.031 76.325 200.339 75.8474C200.536 75.4273 200.64 74.9699 200.646 74.506C200.836 72.3754 200.522 70.2298 199.727 68.2437C198.4 65.3276 197.372 68.4479 196.425 70.0955Z" fill="#2B95F6"/>
<path d="M196.425 70.0955C195.739 71.5536 194.594 72.747 193.166 73.4927L187.151 77.2836C186.893 77.4226 186.674 77.626 186.517 77.8741C186.45 78.1005 186.432 78.3388 186.464 78.5727C186.497 78.8067 186.58 79.0309 186.707 79.2301C187.024 80.032 187.456 80.7835 187.99 81.4609C188.256 81.7961 188.594 82.0671 188.979 82.2539C189.364 82.4407 189.786 82.5384 190.213 82.5399C190.967 82.4256 191.676 82.1137 192.269 81.6359L199.115 76.9993C199.61 76.7203 200.031 76.325 200.339 75.8474C200.536 75.4273 200.64 74.9699 200.646 74.506C200.836 72.3754 200.522 70.2298 199.727 68.2437C198.4 65.3276 197.372 68.4479 196.425 70.0955Z" fill="url(#paint3_linear_320_49)"/>
<path d="M184.301 80.6371C184.084 80.8137 183.835 80.9449 183.566 81.0231C183.298 81.1012 183.017 81.1246 182.74 81.092C182.462 81.0594 182.194 80.9713 181.951 80.833C181.709 80.6948 181.496 80.5092 181.327 80.2872L174.598 71.6118C174.247 71.16 174.087 70.5887 174.152 70.0204C174.218 69.4521 174.503 68.9321 174.948 68.5718C175.164 68.3958 175.414 68.2652 175.681 68.1877C175.949 68.1103 176.23 68.0875 176.507 68.1209C176.784 68.1542 177.051 68.2429 177.293 68.3818C177.535 68.5206 177.746 68.7067 177.915 68.929L184.644 77.6262C184.986 78.0752 185.142 78.6394 185.078 79.2006C185.014 79.7619 184.736 80.2766 184.301 80.6371Z" fill="#2B95F6"/>
<path d="M184.301 80.6371C184.084 80.8137 183.835 80.9449 183.566 81.0231C183.298 81.1012 183.017 81.1246 182.74 81.092C182.462 81.0594 182.194 80.9713 181.951 80.833C181.709 80.6948 181.496 80.5092 181.327 80.2872L174.598 71.6118C174.247 71.16 174.087 70.5887 174.152 70.0204C174.218 69.4521 174.503 68.9321 174.948 68.5718C175.164 68.3958 175.414 68.2652 175.681 68.1877C175.949 68.1103 176.23 68.0875 176.507 68.1209C176.784 68.1542 177.051 68.2429 177.293 68.3818C177.535 68.5206 177.746 68.7067 177.915 68.929L184.644 77.6262C184.986 78.0752 185.142 78.6394 185.078 79.2006C185.014 79.7619 184.736 80.2766 184.301 80.6371Z" fill="url(#paint4_linear_320_49)"/>
<path d="M196.774 96.3987C196.38 96.7198 195.925 96.9584 195.436 97.1002C194.948 97.2421 194.436 97.2844 193.93 97.2245C193.425 97.1647 192.937 97.004 192.495 96.7519C192.053 96.4998 191.667 96.1616 191.358 95.7572L179.081 79.8718C178.447 79.0465 178.159 78.0071 178.277 76.9731C178.396 75.9392 178.911 74.9918 179.715 74.3312C180.111 74.0114 180.566 73.7742 181.055 73.6334C181.544 73.4927 182.056 73.4514 182.561 73.5119C183.066 73.5724 183.553 73.7334 183.995 73.9856C184.437 74.2378 184.823 74.5759 185.132 74.98L197.409 90.8581C198.046 91.682 198.337 92.7224 198.218 93.7574C198.1 94.7924 197.582 95.7402 196.774 96.3987Z" fill="#2B95F6"/>
<path d="M196.774 96.3987C196.38 96.7198 195.925 96.9584 195.436 97.1002C194.948 97.2421 194.436 97.2844 193.93 97.2245C193.425 97.1647 192.937 97.004 192.495 96.7519C192.053 96.4998 191.667 96.1616 191.358 95.7572L179.081 79.8718C178.447 79.0465 178.159 78.0071 178.277 76.9731C178.396 75.9392 178.911 74.9918 179.715 74.3312C180.111 74.0114 180.566 73.7742 181.055 73.6334C181.544 73.4927 182.056 73.4514 182.561 73.5119C183.066 73.5724 183.553 73.7334 183.995 73.9856C184.437 74.2378 184.823 74.5759 185.132 74.98L197.409 90.8581C198.046 91.682 198.337 92.7224 198.218 93.7574C198.1 94.7924 197.582 95.7402 196.774 96.3987Z" fill="url(#paint5_linear_320_49)"/>
<path d="M160.229 24.3784C146.057 24.3784 134.509 36.174 134.509 50.6743C134.509 65.1745 146.057 76.9774 160.229 76.9774C174.401 76.9774 185.941 65.1818 185.941 50.6743C185.941 36.1667 174.408 24.3784 160.229 24.3784ZM160.506 73.8499C148.025 73.8499 137.906 63.4686 137.906 50.7107C137.906 37.9528 148.054 27.5642 160.506 27.5642C172.957 27.5642 183.105 37.9528 183.105 50.7107C183.105 63.4686 172.979 73.8499 160.506 73.8499Z" fill="#2B95F6"/>
<path d="M160.229 24.3784C146.057 24.3784 134.509 36.174 134.509 50.6743C134.509 65.1745 146.057 76.9774 160.229 76.9774C174.401 76.9774 185.941 65.1818 185.941 50.6743C185.941 36.1667 174.408 24.3784 160.229 24.3784ZM160.506 73.8499C148.025 73.8499 137.906 63.4686 137.906 50.7107C137.906 37.9528 148.054 27.5642 160.506 27.5642C172.957 27.5642 183.105 37.9528 183.105 50.7107C183.105 63.4686 172.979 73.8499 160.506 73.8499Z" fill="url(#paint6_linear_320_49)"/>
<path d="M215.124 114.121C214.213 119.807 215.532 125.691 217.938 130.889C218.449 131.819 218.797 132.83 218.966 133.878C219.048 134.401 218.977 134.938 218.763 135.422C218.548 135.907 218.199 136.32 217.756 136.611C216.655 137.202 215.299 136.611 214.3 135.824C211.384 133.637 209.613 130.196 208.228 126.777C205.877 120.999 204.384 114.908 203.795 108.697C203.422 105.926 203.575 103.108 204.247 100.394C204.968 98.1669 206.103 96.0965 207.593 94.2917C208.386 93.1849 209.393 92.248 210.553 91.536C211.492 91.0657 212.536 90.8479 213.585 90.9042C214.633 90.9604 215.648 91.2887 216.531 91.8568C218.718 93.2055 218.988 94.7729 218.973 97.1932C218.944 103.149 216.043 108.355 215.124 114.121Z" fill="#606161"/>
<path d="M215.022 113.968C214.103 119.655 215.43 125.538 217.836 130.736C218.348 131.663 218.696 132.672 218.864 133.717C218.946 134.241 218.875 134.777 218.661 135.262C218.446 135.747 218.096 136.16 217.654 136.451C216.553 137.042 215.197 136.451 214.198 135.664C211.282 133.477 209.511 130.036 208.118 126.617C205.773 120.839 204.283 114.751 203.693 108.544C203.316 105.773 203.469 102.955 204.145 100.241C204.864 98.011 206 95.938 207.491 94.1315C208.287 93.027 209.293 92.0905 210.451 91.3758C211.39 90.9076 212.435 90.691 213.482 90.7472C214.53 90.8035 215.545 91.1306 216.429 91.6965C218.616 93.0525 218.886 94.6126 218.871 97.0403C218.842 102.96 215.941 108.202 215.022 113.968Z" fill="url(#paint7_linear_320_49)"/>
<path d="M208.388 112.969C207.457 114.302 206.684 115.738 206.084 117.249C205.627 118.887 205.435 120.588 205.515 122.286C205.531 125.165 205.696 128.042 206.011 130.903C206.193 132.522 206.412 134.242 205.8 135.715C205.187 137.188 203.365 138.172 202.206 137.173C201.802 136.758 201.494 136.261 201.302 135.715C197.206 126.276 195.803 115.888 197.248 105.701C197.737 102.326 198.561 98.9284 200.303 96.1217C202.045 93.3149 204.845 91.1424 207.914 91.0185C209.562 90.9529 212.346 91.5871 213.425 93.1545C214.504 94.7219 213.768 97.4485 213.425 99.3294C212.619 104.152 210.91 108.78 208.388 112.969Z" fill="#606161"/>
<path d="M208.388 112.969C207.457 114.302 206.684 115.738 206.084 117.249C205.627 118.887 205.435 120.588 205.515 122.286C205.531 125.165 205.696 128.042 206.011 130.903C206.193 132.522 206.412 134.242 205.8 135.715C205.187 137.188 203.365 138.172 202.206 137.173C201.802 136.758 201.494 136.261 201.302 135.715C197.206 126.276 195.803 115.888 197.248 105.701C197.737 102.326 198.561 98.9284 200.303 96.1217C202.045 93.3149 204.845 91.1424 207.914 91.0185C209.562 90.9529 212.346 91.5871 213.425 93.1545C214.504 94.7219 213.768 97.4485 213.425 99.3294C212.619 104.152 210.91 108.78 208.388 112.969Z" fill="url(#paint8_linear_320_49)"/>
<path d="M181.924 79.2227C181.618 79.7258 182.376 80.4985 181.924 80.9214C181.669 81.1838 181.232 80.9943 180.875 81.0672C180.652 81.1417 180.463 81.2921 180.341 81.492C180.218 81.692 180.17 81.9287 180.204 82.1607C180.287 82.6255 180.476 83.0648 180.758 83.4438L181.56 84.6977C181.668 84.8844 181.8 85.056 181.954 85.208C182.123 85.3584 182.318 85.4769 182.53 85.558C182.967 85.7224 183.436 85.7824 183.901 85.733C184.366 85.6836 184.812 85.5263 185.205 85.2736C185.375 85.1725 185.524 85.0387 185.642 84.88C185.755 84.7271 185.837 84.5538 185.883 84.3696C185.99 83.7741 185.963 83.1622 185.804 82.5784C185.645 81.9945 185.359 81.4534 184.964 80.9943C184.374 80.3163 182.872 79.1498 181.924 79.2227Z" fill="#C8A59C"/>
<path d="M196.177 43.3259C195.823 45.1651 195.786 47.0512 196.067 48.9029L196.41 52.4605C196.418 53.318 196.647 54.159 197.073 54.9028C197.941 56.164 199.676 56.3171 201.178 56.3608L201.469 59.3134C201.479 59.7033 201.574 60.0864 201.746 60.436C201.977 60.7497 202.296 60.987 202.662 61.117C203.029 61.247 203.426 61.2638 203.802 61.1651C205.989 60.7641 207.229 58.4458 207.841 56.2879C208.695 53.2388 208.847 50.0361 208.286 46.92C207.992 44.6739 207.003 42.5759 205.457 40.9201C202.315 37.902 197.285 38.9663 196.177 43.3259Z" fill="#C8A59C"/>
<path d="M200.442 35.3794C198.721 35.0951 196.796 34.6504 195.338 35.6273C194.673 36.1372 194.189 36.8479 193.96 37.6542C193.73 38.4605 193.766 39.3193 194.063 40.1035C194.375 40.8737 194.852 41.5663 195.461 42.133C196.069 42.6996 196.793 43.1266 197.584 43.3841C199.195 43.96 201.229 44.2006 201.892 45.8117C202.308 46.8761 201.892 48.1956 202.512 49.1506L203.97 46.7376C204.01 46.6486 204.079 46.5763 204.167 46.5334C204.22 46.5198 204.276 46.518 204.33 46.528C204.384 46.5381 204.435 46.5599 204.48 46.5918C204.904 46.8225 205.255 47.1671 205.494 47.5868C205.732 48.0064 205.848 48.4844 205.829 48.9667C205.81 49.4489 205.657 49.9163 205.386 50.316C205.116 50.7156 204.739 51.0316 204.298 51.2284C204.972 51.7403 205.493 52.4262 205.807 53.2122C206.12 53.9983 206.214 54.8549 206.077 55.69C206.492 55.8731 206.952 55.93 207.399 55.8535C207.846 55.777 208.261 55.5705 208.592 55.2599C209.241 54.6169 209.739 53.8375 210.05 52.978C210.54 51.8576 210.954 50.7056 211.289 49.5297C211.793 48.0293 211.977 46.4398 211.829 44.864C211.752 44.0818 211.498 43.3276 211.084 42.6591C210.671 41.9906 210.11 41.4256 209.445 41.0075C208.938 40.8872 208.489 40.5931 208.176 40.1763C207.863 39.7594 207.706 39.2462 207.732 38.7256C206.974 34.8253 203.35 35.8897 200.442 35.3794Z" fill="#606161"/>
<path d="M200.442 35.3794C198.721 35.0951 196.796 34.6504 195.338 35.6273C194.673 36.1372 194.189 36.8479 193.96 37.6542C193.73 38.4605 193.766 39.3193 194.063 40.1035C194.375 40.8737 194.852 41.5663 195.461 42.133C196.069 42.6996 196.793 43.1266 197.584 43.3841C199.195 43.96 201.229 44.2006 201.892 45.8117C202.308 46.8761 201.892 48.1956 202.512 49.1506L203.97 46.7376C204.01 46.6486 204.079 46.5763 204.167 46.5334C204.22 46.5198 204.276 46.518 204.33 46.528C204.384 46.5381 204.435 46.5599 204.48 46.5918C204.904 46.8225 205.255 47.1671 205.494 47.5868C205.732 48.0064 205.848 48.4844 205.829 48.9667C205.81 49.4489 205.657 49.9163 205.386 50.316C205.116 50.7156 204.739 51.0316 204.298 51.2284C204.972 51.7403 205.493 52.4262 205.807 53.2122C206.12 53.9983 206.214 54.8549 206.077 55.69C206.492 55.8731 206.952 55.93 207.399 55.8535C207.846 55.777 208.261 55.5705 208.592 55.2599C209.241 54.6169 209.739 53.8375 210.05 52.978C210.54 51.8576 210.954 50.7056 211.289 49.5297C211.793 48.0293 211.977 46.4398 211.829 44.864C211.752 44.0818 211.498 43.3276 211.084 42.6591C210.671 41.9906 210.11 41.4256 209.445 41.0075C208.938 40.8872 208.489 40.5931 208.176 40.1763C207.863 39.7594 207.706 39.2462 207.732 38.7256C206.974 34.8253 203.35 35.8897 200.442 35.3794Z" fill="url(#paint9_linear_320_49)"/>
<path d="M203.584 49.6974C203.66 49.6558 203.726 49.5974 203.776 49.5267C203.827 49.456 203.861 49.3748 203.875 49.2891C203.893 49.1683 203.893 49.0455 203.875 48.9246C203.822 48.6846 203.822 48.4357 203.875 48.1956C203.944 47.9555 204.103 47.7516 204.32 47.627C204.365 47.6129 204.413 47.6129 204.458 47.627C204.497 47.6174 204.537 47.6174 204.575 47.627L204.816 47.729C204.886 47.7547 204.948 47.7973 204.998 47.853C205.026 47.9003 205.046 47.9521 205.056 48.0061C205.138 48.3782 205.135 48.7639 205.048 49.1348C204.961 49.5057 204.792 49.8523 204.553 50.1494C204.506 50.2097 204.45 50.2615 204.386 50.3025C204.3 50.3456 204.205 50.368 204.108 50.3681C203.893 50.4042 203.672 50.3841 203.467 50.3098C203.35 50.2442 203.088 50.0911 203.146 49.9307C203.204 49.7703 203.46 49.7411 203.584 49.6974Z" fill="url(#paint10_linear_320_49)"/>
<path d="M219.301 89.7792C219.258 91.3684 219.126 93.0306 218.288 94.3501C216.888 96.6393 213.914 97.31 211.275 97.31C210.083 97.323 208.893 97.2106 207.724 96.9746C206.86 96.8313 206.016 96.5866 205.209 96.2456C203.272 95.4321 201.683 93.9639 200.719 92.0975C200.058 90.5477 199.67 88.895 199.574 87.213C199.268 84.6395 198.962 82.0588 198.721 79.4562C198.459 76.5401 198.284 73.675 198.262 70.7881C198.186 68.4837 198.444 66.1805 199.027 63.9499C199.606 61.729 200.929 59.7735 202.774 58.4093C204.232 57.4033 207.068 56.1275 208.913 56.3972C210.969 56.6888 212.354 59.4445 213.163 61.1431C217.49 70.0531 219.596 79.8783 219.301 89.7792Z" fill="#2B95F6"/>
<path d="M208.366 83.7063C207.937 86.1773 207.782 88.6884 207.907 91.1934C208.038 92.8701 208.957 94.9551 208.038 96.5444C207.949 96.6981 207.843 96.8423 207.725 96.9745C206.86 96.8312 206.016 96.5865 205.209 96.2455C203.272 95.432 201.683 93.9638 200.719 92.0974C200.058 90.5476 199.67 88.895 199.574 87.2129C199.268 84.6395 198.962 82.0587 198.721 79.4561C199.312 77.0576 201.134 75.133 202.774 73.2959C205.122 70.7151 207.375 67.9157 208.432 64.5476C208.926 64.8228 209.349 65.2091 209.667 65.676C209.986 66.1429 210.192 66.6775 210.269 67.2377C210.407 68.3715 210.37 69.5197 210.159 70.6422C209.542 74.9726 208.944 79.3273 208.366 83.7063Z" fill="url(#paint11_linear_320_49)"/>
<path d="M203.868 61.9378C200.821 64.7737 199.96 69.228 198.079 72.9825C197.829 73.5328 197.5 74.0437 197.103 74.4989C196.213 75.4612 194.915 75.8694 193.691 76.3068C191.186 77.1985 188.787 78.3647 186.539 79.7843C185.426 80.3515 184.535 81.2756 184.009 82.4087C183.433 84.0855 184.476 86.0174 186 86.8849C187.578 87.6691 189.368 87.9247 191.103 87.614C194.415 87.1157 197.633 86.1177 200.646 84.6541C201.691 84.2247 202.672 83.6531 203.562 82.9555C204.325 82.2469 205.002 81.4517 205.581 80.5862C206.575 79.244 207.493 77.847 208.33 76.4016C209.936 73.526 210.929 70.3487 211.246 67.0701C211.464 65.5684 211.309 64.0359 210.794 62.6085C209.306 59.0873 206.172 59.7945 203.868 61.9378Z" fill="#2B95F6"/>
<path d="M206.565 138.558C206.769 139.287 206.944 140.228 206.471 140.854C206.234 141.156 205.888 141.353 205.508 141.401C204.989 141.456 204.468 141.313 204.05 141C203.627 140.672 203.279 140.257 203.03 139.783C202.593 138.997 202.343 138.122 202.301 137.224C202.27 136.95 202.316 136.672 202.432 136.422C202.627 136.118 202.928 135.897 203.277 135.802C203.934 135.554 205.173 135.124 205.734 135.751C206.296 136.378 206.361 137.771 206.565 138.558Z" fill="#C8A59C"/>
<path d="M220.169 136.495C220.577 137.173 220.993 137.953 220.708 138.733C220.567 139.088 220.292 139.373 219.943 139.528C219.455 139.739 218.904 139.754 218.405 139.571C217.908 139.381 217.459 139.082 217.092 138.697C216.46 138.068 215.985 137.299 215.707 136.451C215.604 136.195 215.571 135.915 215.612 135.642C215.712 135.293 215.938 134.994 216.247 134.804C216.808 134.381 217.88 133.608 218.594 134.075C219.309 134.541 219.761 135.766 220.169 136.495Z" fill="#C8A59C"/>
<path d="M204.983 140.176C204.554 140.332 204.092 140.372 203.642 140.293C203.415 140.253 203.183 140.253 202.957 140.293C202.764 140.359 202.583 140.452 202.417 140.57L199.895 142.188C199.571 142.335 199.312 142.594 199.166 142.918C199.12 143.134 199.144 143.359 199.234 143.561C199.324 143.763 199.477 143.931 199.669 144.04C200.057 144.239 200.486 144.347 200.923 144.354C202.897 144.53 204.885 144.462 206.842 144.15C207.13 144.128 207.406 144.024 207.637 143.851C207.794 143.694 207.912 143.501 207.98 143.289C208.303 142.523 208.385 141.676 208.213 140.862C208.14 140.483 207.985 140.126 207.758 139.815C207.531 139.503 207.238 139.246 206.901 139.061C206.142 138.864 205.588 139.892 204.983 140.176Z" fill="#2B95F6"/>
<path d="M218.711 138.42C218.301 138.622 217.848 138.717 217.391 138.697C217.161 138.692 216.931 138.729 216.713 138.806C216.529 138.894 216.359 139.009 216.21 139.149L213.907 141.066C213.611 141.26 213.392 141.551 213.287 141.89C213.268 142.11 213.319 142.331 213.433 142.521C213.546 142.711 213.717 142.86 213.921 142.947C214.33 143.1 214.77 143.153 215.204 143.1C217.18 143.032 219.139 142.719 221.036 142.167C221.311 142.1 221.562 141.961 221.765 141.766C221.901 141.589 221.996 141.385 222.043 141.168C222.268 140.369 222.248 139.52 221.984 138.733C221.758 138.121 221.153 137.231 220.468 137.107C219.717 136.969 219.287 138.055 218.711 138.42Z" fill="#2B95F6"/>
<path d="M204.983 140.176C204.554 140.332 204.092 140.372 203.642 140.293C203.415 140.253 203.183 140.253 202.957 140.293C202.764 140.359 202.583 140.452 202.417 140.57L199.895 142.188C199.571 142.335 199.312 142.594 199.166 142.918C199.12 143.134 199.144 143.359 199.234 143.561C199.324 143.763 199.477 143.931 199.669 144.04C200.057 144.239 200.486 144.347 200.923 144.354C202.897 144.53 204.885 144.462 206.842 144.15C207.13 144.128 207.406 144.024 207.637 143.851C207.794 143.694 207.912 143.501 207.98 143.289C208.303 142.523 208.385 141.676 208.213 140.862C208.14 140.483 207.985 140.126 207.758 139.815C207.531 139.503 207.238 139.246 206.901 139.061C206.142 138.864 205.588 139.892 204.983 140.176Z" fill="url(#paint12_linear_320_49)"/>
<path d="M218.711 138.42C218.301 138.622 217.848 138.717 217.391 138.697C217.161 138.692 216.931 138.729 216.713 138.806C216.529 138.894 216.359 139.009 216.21 139.149L213.907 141.066C213.611 141.26 213.392 141.551 213.287 141.89C213.268 142.11 213.319 142.331 213.433 142.521C213.546 142.711 213.717 142.86 213.921 142.947C214.33 143.1 214.77 143.153 215.204 143.1C217.18 143.032 219.139 142.719 221.036 142.167C221.311 142.1 221.562 141.961 221.765 141.766C221.901 141.589 221.996 141.385 222.043 141.168C222.268 140.369 222.248 139.52 221.984 138.733C221.758 138.121 221.153 137.231 220.468 137.107C219.717 136.969 219.287 138.055 218.711 138.42Z" fill="url(#paint13_linear_320_49)"/>
<path opacity="0.36" d="M98.4148 41.7073H38.6131C37.3207 41.7073 36.2729 42.755 36.2729 44.0474V44.0985C36.2729 45.3909 37.3207 46.4386 38.6131 46.4386H98.4148C99.7073 46.4386 100.755 45.3909 100.755 44.0985V44.0474C100.755 42.755 99.7073 41.7073 98.4148 41.7073Z" fill="#2B95F6"/>
<path opacity="0.36" d="M119.243 55.4348H59.4412C58.1488 55.4348 57.1011 56.4825 57.1011 57.775V57.826C57.1011 59.1184 58.1488 60.1662 59.4412 60.1662H119.243C120.535 60.1662 121.583 59.1184 121.583 57.826V57.775C121.583 56.4825 120.535 55.4348 119.243 55.4348Z" fill="#2B95F6"/>
<path opacity="0.36" d="M101.346 69.002H41.5438C40.2513 69.002 39.2036 70.0497 39.2036 71.3421V71.3931C39.2036 72.6856 40.2513 73.7333 41.5438 73.7333H101.346C102.638 73.7333 103.686 72.6856 103.686 71.3931V71.3421C103.686 70.0497 102.638 69.002 101.346 69.002Z" fill="#2B95F6"/>
<path d="M165.893 46.1762C166.622 45.4472 167.351 44.8421 168.08 44.2151C168.241 44.0693 168.437 43.8433 168.612 43.8506C168.941 43.8367 169.265 43.9343 169.531 44.1277C169.596 44.1985 169.644 44.2825 169.674 44.3739C169.704 44.4652 169.713 44.5619 169.702 44.6573C169.691 44.7527 169.66 44.8445 169.61 44.9267C169.56 45.0089 169.494 45.0795 169.414 45.1337C168.722 45.7825 168.022 46.4241 167.278 47.1094C167.481 47.3397 167.669 47.5833 167.84 47.8384C168.301 48.5447 168.687 49.2972 168.991 50.0838C169.035 50.3604 169.185 50.609 169.41 50.7754C169.635 50.9419 169.917 51.013 170.194 50.9732C171.222 50.9732 172.25 51.0534 173.278 51.1117C173.92 51.1117 174.211 51.447 174.189 52.0011C174.168 52.5552 173.839 52.8541 173.22 52.8322C171.951 52.7884 170.69 52.7155 169.356 52.6499C169.123 54.2446 168.388 55.7234 167.256 56.871L158.895 47.3281L157.473 48.6184L165.908 58.278C164.882 59.217 163.557 59.7643 162.168 59.8235C161.541 59.8235 161.337 60.0568 161.373 60.691C161.431 61.6315 161.373 62.5719 161.373 63.5124C161.373 64.3362 161.009 64.8173 160.389 64.81C159.769 64.8027 159.514 64.4018 159.514 63.4978C159.514 62.4042 159.514 61.3107 159.514 60.2099C159.528 60.038 159.488 59.866 159.399 59.7182C159.31 59.5704 159.177 59.4542 159.018 59.3861C158.071 58.8029 157.174 58.1249 156.139 57.4031L154.958 58.4894L154.229 59.1601C153.616 59.7142 153.113 59.7725 152.734 59.3496C152.355 58.9268 152.457 58.4602 153.091 57.8916L155.191 55.9597C154.265 54.9099 153.383 53.8893 152.479 52.8978C152.303 52.7732 152.09 52.7116 151.874 52.7228C150.955 52.6572 150.037 52.6135 149.118 52.5624C148.448 52.5624 148.12 52.2271 148.127 51.6585C148.134 51.0898 148.44 50.8274 149.155 50.8492C150.095 50.8492 151.036 50.9732 151.976 50.9732C152.313 50.9597 152.637 50.834 152.895 50.616C155.621 48.1519 158.333 45.6732 161.031 43.1799C161.247 42.9448 161.38 42.6451 161.41 42.327C161.504 41.3938 161.519 40.4461 161.57 39.5129C161.57 39.338 161.57 39.0901 161.694 39.0026C161.964 38.7912 162.314 38.4923 162.591 38.536C162.749 38.5951 162.89 38.6928 163 38.8201C163.111 38.9474 163.188 39.1004 163.225 39.2651C163.254 40.2045 163.217 41.1448 163.116 42.0791C163.073 42.3429 163.095 42.613 163.179 42.8667C163.262 43.1204 163.406 43.3503 163.597 43.5371C164.377 44.3828 165.106 45.2722 165.893 46.1762Z" fill="#2B95F6"/>
<path d="M158.931 42.451L152.209 48.6039C151.743 48.1071 151.4 47.5082 151.206 46.8551C151.013 46.202 150.974 45.5128 151.094 44.8422C151.203 43.9832 151.557 43.174 152.115 42.5119C152.673 41.8499 153.411 41.3632 154.239 41.1105C155.067 40.8579 155.95 40.85 156.783 41.0878C157.615 41.3256 158.361 41.799 158.931 42.451Z" fill="#2B95F6"/>
<path d="M165.908 46.1616C166.637 45.4326 167.366 44.8275 168.095 44.2006C168.255 44.0547 168.452 43.8288 168.627 43.836C168.956 43.8221 169.279 43.9197 169.546 44.1131C169.61 44.184 169.659 44.2679 169.689 44.3593C169.718 44.4507 169.728 44.5473 169.717 44.6427C169.706 44.7381 169.674 44.83 169.625 44.9122C169.575 44.9944 169.508 45.0649 169.429 45.1191C168.736 45.768 168.036 46.4095 167.293 47.0948C167.496 47.3252 167.683 47.5687 167.854 47.8238C168.315 48.5301 168.701 49.2826 169.006 50.0692C169.049 50.3454 169.2 50.5933 169.425 50.7586C169.651 50.9239 169.933 50.9932 170.209 50.9513C171.237 50.9513 172.265 51.0388 173.293 51.0971C173.934 51.0971 174.226 51.4325 174.204 51.9865C174.182 52.5406 173.854 52.8395 173.234 52.8176C171.966 52.7739 170.705 52.701 169.371 52.6353C169.142 54.2311 168.405 55.7109 167.271 56.8564L158.909 47.3135L157.473 48.6039L165.908 58.2634C164.882 59.2024 163.557 59.7497 162.168 59.8089C161.541 59.8089 161.337 60.0422 161.373 60.6765C161.432 61.6169 161.41 62.5573 161.41 63.4978C161.41 64.3216 161.045 64.8027 160.425 64.7882C159.806 64.7736 159.551 64.3872 159.551 63.4832C159.551 62.3897 159.551 61.2961 159.551 60.188C159.564 60.0171 159.524 59.8463 159.435 59.6997C159.346 59.5532 159.213 59.4383 159.055 59.3715C158.107 58.7883 157.211 58.1103 156.175 57.3886L154.972 58.4894L154.243 59.1601C153.631 59.7142 153.128 59.7725 152.749 59.3496C152.37 58.9268 152.472 58.4602 153.106 57.8916L155.206 55.9597C154.28 54.9099 153.398 53.8893 152.494 52.8905C152.315 52.7715 152.103 52.7127 151.889 52.7228C150.97 52.6572 150.052 52.6135 149.133 52.5624C148.462 52.526 148.134 52.2271 148.141 51.6585C148.149 51.0898 148.455 50.8274 149.169 50.8492C150.11 50.8492 151.05 50.9732 151.991 50.9732C152.33 50.9597 152.656 50.834 152.917 50.616C155.638 48.1519 158.348 45.6732 161.045 43.1799C161.262 42.9448 161.395 42.6451 161.424 42.327C161.519 41.3938 161.534 40.4461 161.585 39.5129C161.585 39.338 161.585 39.0901 161.709 39.0026C161.978 38.7912 162.328 38.4923 162.605 38.536C162.763 38.5951 162.904 38.6928 163.015 38.8201C163.126 38.9474 163.203 39.1004 163.24 39.2651C163.268 40.2045 163.232 41.1448 163.13 42.0791C163.088 42.3429 163.109 42.613 163.193 42.8667C163.277 43.1204 163.42 43.3503 163.611 43.5371C164.391 44.3682 165.12 45.2576 165.908 46.1616Z" fill="url(#paint14_linear_320_49)"/>
<path d="M158.931 42.4071L152.209 48.56C151.745 48.0625 151.402 47.4634 151.21 46.8103C151.018 46.1572 150.98 45.4683 151.101 44.7983C151.211 43.9409 151.566 43.1335 152.124 42.473C152.681 41.8124 153.417 41.3267 154.244 41.0742C155.071 40.8218 155.953 40.8133 156.784 41.0497C157.615 41.2861 158.361 41.7574 158.931 42.4071Z" fill="url(#paint15_linear_320_49)"/>
<defs>
<linearGradient id="paint0_linear_320_49" x1="125.943" y1="228.118" x2="127" y2="136.174" gradientUnits="userSpaceOnUse">
<stop stop-color="#010101" stop-opacity="0"/>
<stop offset="0.95" stop-color="#010101"/>
</linearGradient>
<linearGradient id="paint1_linear_320_49" x1="128.436" y1="-38.0549" x2="129.653" y2="412.627" gradientUnits="userSpaceOnUse">
<stop stop-color="#010101" stop-opacity="0"/>
<stop offset="0.95" stop-color="#010101"/>
</linearGradient>
<linearGradient id="paint2_linear_320_49" x1="126.781" y1="169.716" x2="126.876" y2="202.508" gradientUnits="userSpaceOnUse">
<stop stop-color="#010101" stop-opacity="0"/>
<stop offset="0.95" stop-color="#010101"/>
</linearGradient>
<linearGradient id="paint3_linear_320_49" x1="189.572" y1="65.4516" x2="195.922" y2="79.8935" gradientUnits="userSpaceOnUse">
<stop stop-color="#010101" stop-opacity="0"/>
<stop offset="0.95" stop-color="#010101"/>
</linearGradient>
<linearGradient id="paint4_linear_320_49" x1="181.166" y1="73.2157" x2="177.346" y2="76.6202" gradientUnits="userSpaceOnUse">
<stop stop-color="#010101" stop-opacity="0"/>
<stop offset="0.95" stop-color="#010101"/>
</linearGradient>
<linearGradient id="paint5_linear_320_49" x1="201.251" y1="74.3312" x2="181.961" y2="90.6613" gradientUnits="userSpaceOnUse">
<stop stop-color="#010101" stop-opacity="0"/>
<stop offset="0.95" stop-color="#010101"/>
</linearGradient>
<linearGradient id="paint6_linear_320_49" x1="152.851" y1="40.4825" x2="223.727" y2="138.441" gradientUnits="userSpaceOnUse">
<stop stop-color="white" stop-opacity="0"/>
<stop offset="0.13" stop-color="white" stop-opacity="0.23"/>
<stop offset="0.23" stop-color="white" stop-opacity="0.41"/>
<stop offset="0.35" stop-color="white" stop-opacity="0.59"/>
<stop offset="0.48" stop-color="white" stop-opacity="0.74"/>
<stop offset="0.6" stop-color="white" stop-opacity="0.85"/>
<stop offset="0.72" stop-color="white" stop-opacity="0.93"/>
<stop offset="0.84" stop-color="white" stop-opacity="0.98"/>
<stop offset="0.95" stop-color="white"/>
</linearGradient>
<linearGradient id="paint7_linear_320_49" x1="221.43" y1="114.85" x2="206.121" y2="112.16" gradientUnits="userSpaceOnUse">
<stop stop-color="#010101" stop-opacity="0"/>
<stop offset="0.95" stop-color="#010101"/>
</linearGradient>
<linearGradient id="paint8_linear_320_49" x1="216.451" y1="116.6" x2="192.451" y2="111.3" gradientUnits="userSpaceOnUse">
<stop stop-color="#010101" stop-opacity="0"/>
<stop offset="0.55" stop-color="#010101" stop-opacity="0.26"/>
<stop offset="0.95" stop-color="#010101"/>
</linearGradient>
<linearGradient id="paint9_linear_320_49" x1="203.379" y1="36.8374" x2="202.118" y2="51.5783" gradientUnits="userSpaceOnUse">
<stop stop-color="#010101" stop-opacity="0"/>
<stop offset="0.95" stop-color="#010101"/>
</linearGradient>
<linearGradient id="paint10_linear_320_49" x1="204.903" y1="49.0121" x2="201.849" y2="48.8809" gradientUnits="userSpaceOnUse">
<stop stop-color="#010101" stop-opacity="0"/>
<stop offset="0.95" stop-color="#010101"/>
</linearGradient>
<linearGradient id="paint11_linear_320_49" x1="192.313" y1="98.3232" x2="233.182" y2="52.7447" gradientUnits="userSpaceOnUse">
<stop stop-color="#010101" stop-opacity="0"/>
<stop offset="0.95" stop-color="#010101"/>
</linearGradient>
<linearGradient id="paint12_linear_320_49" x1="201.725" y1="126.033" x2="204.881" y2="151.6" gradientUnits="userSpaceOnUse">
<stop stop-color="#010101" stop-opacity="0"/>
<stop offset="0.95" stop-color="#010101"/>
</linearGradient>
<linearGradient id="paint13_linear_320_49" x1="215.707" y1="124.255" x2="218.864" y2="149.851" gradientUnits="userSpaceOnUse">
<stop stop-color="#010101" stop-opacity="0"/>
<stop offset="0.95" stop-color="#010101"/>
</linearGradient>
<linearGradient id="paint14_linear_320_49" x1="176.165" y1="21.4186" x2="147.507" y2="79.4707" gradientUnits="userSpaceOnUse">
<stop stop-color="#010101" stop-opacity="0"/>
<stop offset="0.95" stop-color="#010101"/>
</linearGradient>
<linearGradient id="paint15_linear_320_49" x1="167.81" y1="17.3798" x2="139.284" y2="75.1475" gradientUnits="userSpaceOnUse">
<stop stop-color="#010101" stop-opacity="0"/>
<stop offset="0.95" stop-color="#010101"/>
</linearGradient>
</defs>
</svg>
