<svg width="28" height="28" viewBox="0 0 44 44" fill="none" xmlns="http://www.w3.org/2000/svg">
		<g clip-path="url(#clip0_68_47)">
		<path
			d="M12.8333 7.33335V36.6667H31.1667V7.33335H12.8333ZM11 3.66669H33C33.4862 3.66669 33.9525 3.85984 34.2964 4.20366C34.6402 4.54747 34.8333 5.01379 34.8333 5.50002V38.5C34.8333 38.9863 34.6402 39.4526 34.2964 39.7964C33.9525 40.1402 33.4862 40.3334 33 40.3334H11C10.5138 40.3334 10.0475 40.1402 9.70364 39.7964C9.35982 39.4526 9.16666 38.9863 9.16666 38.5V5.50002C9.16666 5.01379 9.35982 4.54747 9.70364 4.20366C10.0475 3.85984 10.5138 3.66669 11 3.66669ZM22 31.1667C22.4862 31.1667 22.9525 31.3598 23.2964 31.7037C23.6402 32.0475 23.8333 32.5138 23.8333 33C23.8333 33.4863 23.6402 33.9526 23.2964 34.2964C22.9525 34.6402 22.4862 34.8334 22 34.8334C21.5138 34.8334 21.0475 34.6402 20.7036 34.2964C20.3598 33.9526 20.1667 33.4863 20.1667 33C20.1667 32.5138 20.3598 32.0475 20.7036 31.7037C21.0475 31.3598 21.5138 31.1667 22 31.1667Z"
			fill="white"></path>
	</g>
	<defs>
		<clipPath id="clip0_68_47">
			<rect width="44" height="44" fill="white"></rect>
		</clipPath>
	</defs>
</svg>